<?xml version="1.0" encoding="utf-8" standalone="no"?>
<!DOCTYPE svg PUBLIC "-//W3C//DTD SVG 1.1//EN"
  "http://www.w3.org/Graphics/SVG/1.1/DTD/svg11.dtd">
<!-- Created with matplotlib (https://matplotlib.org/) -->
<svg height="345.6pt" version="1.1" viewBox="0 0 460.8 345.6" width="460.8pt" xmlns="http://www.w3.org/2000/svg" xmlns:xlink="http://www.w3.org/1999/xlink">
 <defs>
  <style type="text/css">
*{stroke-linecap:butt;stroke-linejoin:round;}
  </style>
 </defs>
 <g id="figure_1">
  <g id="patch_1">
   <path d="M 0 345.6 
L 460.8 345.6 
L 460.8 0 
L 0 0 
z
" style="fill:#ffffff;"/>
  </g>
  <g id="axes_1">
   <g id="patch_2">
    <path d="M 57.6 162.432 
L 414.72 162.432 
L 414.72 41.472 
L 57.6 41.472 
z
" style="fill:#ffffff;"/>
   </g>
   <g id="matplotlib.axis_1">
    <g id="xtick_1">
     <g id="line2d_1">
      <defs>
       <path d="M 0 0 
L 0 3.5 
" id="mc41aa70039" style="stroke:#000000;stroke-width:0.8;"/>
      </defs>
      <g>
       <use style="stroke:#000000;stroke-width:0.8;" x="73.832727" xlink:href="#mc41aa70039" y="162.432"/>
      </g>
     </g>
     <g id="text_1">
      <!-- $\mathdefault{10^{1}}$ -->
      <defs>
       <path d="M 12.40625 8.296875 
L 28.515625 8.296875 
L 28.515625 63.921875 
L 10.984375 60.40625 
L 10.984375 69.390625 
L 28.421875 72.90625 
L 38.28125 72.90625 
L 38.28125 8.296875 
L 54.390625 8.296875 
L 54.390625 0 
L 12.40625 0 
z
" id="DejaVuSans-49"/>
       <path d="M 31.78125 66.40625 
Q 24.171875 66.40625 20.328125 58.90625 
Q 16.5 51.421875 16.5 36.375 
Q 16.5 21.390625 20.328125 13.890625 
Q 24.171875 6.390625 31.78125 6.390625 
Q 39.453125 6.390625 43.28125 13.890625 
Q 47.125 21.390625 47.125 36.375 
Q 47.125 51.421875 43.28125 58.90625 
Q 39.453125 66.40625 31.78125 66.40625 
z
M 31.78125 74.21875 
Q 44.046875 74.21875 50.515625 64.515625 
Q 56.984375 54.828125 56.984375 36.375 
Q 56.984375 17.96875 50.515625 8.265625 
Q 44.046875 -1.421875 31.78125 -1.421875 
Q 19.53125 -1.421875 13.0625 8.265625 
Q 6.59375 17.96875 6.59375 36.375 
Q 6.59375 54.828125 13.0625 64.515625 
Q 19.53125 74.21875 31.78125 74.21875 
z
" id="DejaVuSans-48"/>
      </defs>
      <g transform="translate(65.032727 177.030437)scale(0.1 -0.1)">
       <use transform="translate(0 0.684375)" xlink:href="#DejaVuSans-49"/>
       <use transform="translate(63.623047 0.684375)" xlink:href="#DejaVuSans-48"/>
       <use transform="translate(128.203125 38.965625)scale(0.7)" xlink:href="#DejaVuSans-49"/>
      </g>
     </g>
    </g>
    <g id="xtick_2">
     <g id="line2d_2">
      <g>
       <use style="stroke:#000000;stroke-width:0.8;" x="339.351801" xlink:href="#mc41aa70039" y="162.432"/>
      </g>
     </g>
     <g id="text_2">
      <!-- $\mathdefault{10^{2}}$ -->
      <defs>
       <path d="M 19.1875 8.296875 
L 53.609375 8.296875 
L 53.609375 0 
L 7.328125 0 
L 7.328125 8.296875 
Q 12.9375 14.109375 22.625 23.890625 
Q 32.328125 33.6875 34.8125 36.53125 
Q 39.546875 41.84375 41.421875 45.53125 
Q 43.3125 49.21875 43.3125 52.78125 
Q 43.3125 58.59375 39.234375 62.25 
Q 35.15625 65.921875 28.609375 65.921875 
Q 23.96875 65.921875 18.8125 64.3125 
Q 13.671875 62.703125 7.8125 59.421875 
L 7.8125 69.390625 
Q 13.765625 71.78125 18.9375 73 
Q 24.125 74.21875 28.421875 74.21875 
Q 39.75 74.21875 46.484375 68.546875 
Q 53.21875 62.890625 53.21875 53.421875 
Q 53.21875 48.921875 51.53125 44.890625 
Q 49.859375 40.875 45.40625 35.40625 
Q 44.1875 33.984375 37.640625 27.21875 
Q 31.109375 20.453125 19.1875 8.296875 
z
" id="DejaVuSans-50"/>
      </defs>
      <g transform="translate(330.551801 177.030437)scale(0.1 -0.1)">
       <use transform="translate(0 0.765625)" xlink:href="#DejaVuSans-49"/>
       <use transform="translate(63.623047 0.765625)" xlink:href="#DejaVuSans-48"/>
       <use transform="translate(128.203125 39.046875)scale(0.7)" xlink:href="#DejaVuSans-50"/>
      </g>
     </g>
    </g>
    <g id="xtick_3">
     <g id="line2d_3">
      <defs>
       <path d="M 0 0 
L 0 2 
" id="m993e94253e" style="stroke:#000000;stroke-width:0.6;"/>
      </defs>
      <g>
       <use style="stroke:#000000;stroke-width:0.6;" x="61.683241" xlink:href="#m993e94253e" y="162.432"/>
      </g>
     </g>
    </g>
    <g id="xtick_4">
     <g id="line2d_4">
      <g>
       <use style="stroke:#000000;stroke-width:0.6;" x="153.761933" xlink:href="#m993e94253e" y="162.432"/>
      </g>
     </g>
    </g>
    <g id="xtick_5">
     <g id="line2d_5">
      <g>
       <use style="stroke:#000000;stroke-width:0.6;" x="200.517521" xlink:href="#m993e94253e" y="162.432"/>
      </g>
     </g>
    </g>
    <g id="xtick_6">
     <g id="line2d_6">
      <g>
       <use style="stroke:#000000;stroke-width:0.6;" x="233.691139" xlink:href="#m993e94253e" y="162.432"/>
      </g>
     </g>
    </g>
    <g id="xtick_7">
     <g id="line2d_7">
      <g>
       <use style="stroke:#000000;stroke-width:0.6;" x="259.422596" xlink:href="#m993e94253e" y="162.432"/>
      </g>
     </g>
    </g>
    <g id="xtick_8">
     <g id="line2d_8">
      <g>
       <use style="stroke:#000000;stroke-width:0.6;" x="280.446727" xlink:href="#m993e94253e" y="162.432"/>
      </g>
     </g>
    </g>
    <g id="xtick_9">
     <g id="line2d_9">
      <g>
       <use style="stroke:#000000;stroke-width:0.6;" x="298.222376" xlink:href="#m993e94253e" y="162.432"/>
      </g>
     </g>
    </g>
    <g id="xtick_10">
     <g id="line2d_10">
      <g>
       <use style="stroke:#000000;stroke-width:0.6;" x="313.620345" xlink:href="#m993e94253e" y="162.432"/>
      </g>
     </g>
    </g>
    <g id="xtick_11">
     <g id="line2d_11">
      <g>
       <use style="stroke:#000000;stroke-width:0.6;" x="327.202315" xlink:href="#m993e94253e" y="162.432"/>
      </g>
     </g>
    </g>
   </g>
   <g id="matplotlib.axis_2">
    <g id="ytick_1">
     <g id="line2d_12">
      <defs>
       <path d="M 0 0 
L -3.5 0 
" id="m79af7b57ec" style="stroke:#000000;stroke-width:0.8;"/>
      </defs>
      <g>
       <use style="stroke:#000000;stroke-width:0.8;" x="57.6" xlink:href="#m79af7b57ec" y="131.160752"/>
      </g>
     </g>
     <g id="text_3">
      <!-- $\mathdefault{10^{-3}}$ -->
      <defs>
       <path d="M 10.59375 35.5 
L 73.1875 35.5 
L 73.1875 27.203125 
L 10.59375 27.203125 
z
" id="DejaVuSans-8722"/>
       <path d="M 40.578125 39.3125 
Q 47.65625 37.796875 51.625 33 
Q 55.609375 28.21875 55.609375 21.1875 
Q 55.609375 10.40625 48.1875 4.484375 
Q 40.765625 -1.421875 27.09375 -1.421875 
Q 22.515625 -1.421875 17.65625 -0.515625 
Q 12.796875 0.390625 7.625 2.203125 
L 7.625 11.71875 
Q 11.71875 9.328125 16.59375 8.109375 
Q 21.484375 6.890625 26.8125 6.890625 
Q 36.078125 6.890625 40.9375 10.546875 
Q 45.796875 14.203125 45.796875 21.1875 
Q 45.796875 27.640625 41.28125 31.265625 
Q 36.765625 34.90625 28.71875 34.90625 
L 20.21875 34.90625 
L 20.21875 43.015625 
L 29.109375 43.015625 
Q 36.375 43.015625 40.234375 45.921875 
Q 44.09375 48.828125 44.09375 54.296875 
Q 44.09375 59.90625 40.109375 62.90625 
Q 36.140625 65.921875 28.71875 65.921875 
Q 24.65625 65.921875 20.015625 65.03125 
Q 15.375 64.15625 9.8125 62.3125 
L 9.8125 71.09375 
Q 15.4375 72.65625 20.34375 73.4375 
Q 25.25 74.21875 29.59375 74.21875 
Q 40.828125 74.21875 47.359375 69.109375 
Q 53.90625 64.015625 53.90625 55.328125 
Q 53.90625 49.265625 50.4375 45.09375 
Q 46.96875 40.921875 40.578125 39.3125 
z
" id="DejaVuSans-51"/>
      </defs>
      <g transform="translate(27.1 134.959971)scale(0.1 -0.1)">
       <use transform="translate(0 0.765625)" xlink:href="#DejaVuSans-49"/>
       <use transform="translate(63.623047 0.765625)" xlink:href="#DejaVuSans-48"/>
       <use transform="translate(128.203125 39.046875)scale(0.7)" xlink:href="#DejaVuSans-8722"/>
       <use transform="translate(186.855469 39.046875)scale(0.7)" xlink:href="#DejaVuSans-51"/>
      </g>
     </g>
    </g>
    <g id="ytick_2">
     <g id="line2d_13">
      <g>
       <use style="stroke:#000000;stroke-width:0.8;" x="57.6" xlink:href="#m79af7b57ec" y="88.938589"/>
      </g>
     </g>
     <g id="text_4">
      <!-- $\mathdefault{10^{-2}}$ -->
      <g transform="translate(27.1 92.737808)scale(0.1 -0.1)">
       <use transform="translate(0 0.765625)" xlink:href="#DejaVuSans-49"/>
       <use transform="translate(63.623047 0.765625)" xlink:href="#DejaVuSans-48"/>
       <use transform="translate(128.203125 39.046875)scale(0.7)" xlink:href="#DejaVuSans-8722"/>
       <use transform="translate(186.855469 39.046875)scale(0.7)" xlink:href="#DejaVuSans-50"/>
      </g>
     </g>
    </g>
    <g id="ytick_3">
     <g id="line2d_14">
      <g>
       <use style="stroke:#000000;stroke-width:0.8;" x="57.6" xlink:href="#m79af7b57ec" y="46.716426"/>
      </g>
     </g>
     <g id="text_5">
      <!-- $\mathdefault{10^{-1}}$ -->
      <g transform="translate(27.1 50.515645)scale(0.1 -0.1)">
       <use transform="translate(0 0.684375)" xlink:href="#DejaVuSans-49"/>
       <use transform="translate(63.623047 0.684375)" xlink:href="#DejaVuSans-48"/>
       <use transform="translate(128.203125 38.965625)scale(0.7)" xlink:href="#DejaVuSans-8722"/>
       <use transform="translate(186.855469 38.965625)scale(0.7)" xlink:href="#DejaVuSans-49"/>
      </g>
     </g>
    </g>
    <g id="ytick_4">
     <g id="line2d_15">
      <defs>
       <path d="M 0 0 
L -2 0 
" id="m2393d8d5b5" style="stroke:#000000;stroke-width:0.6;"/>
      </defs>
      <g>
       <use style="stroke:#000000;stroke-width:0.6;" x="57.6" xlink:href="#m2393d8d5b5" y="160.672777"/>
      </g>
     </g>
    </g>
    <g id="ytick_5">
     <g id="line2d_16">
      <g>
       <use style="stroke:#000000;stroke-width:0.6;" x="57.6" xlink:href="#m2393d8d5b5" y="153.237824"/>
      </g>
     </g>
    </g>
    <g id="ytick_6">
     <g id="line2d_17">
      <g>
       <use style="stroke:#000000;stroke-width:0.6;" x="57.6" xlink:href="#m2393d8d5b5" y="147.96264"/>
      </g>
     </g>
    </g>
    <g id="ytick_7">
     <g id="line2d_18">
      <g>
       <use style="stroke:#000000;stroke-width:0.6;" x="57.6" xlink:href="#m2393d8d5b5" y="143.870889"/>
      </g>
     </g>
    </g>
    <g id="ytick_8">
     <g id="line2d_19">
      <g>
       <use style="stroke:#000000;stroke-width:0.6;" x="57.6" xlink:href="#m2393d8d5b5" y="140.527686"/>
      </g>
     </g>
    </g>
    <g id="ytick_9">
     <g id="line2d_20">
      <g>
       <use style="stroke:#000000;stroke-width:0.6;" x="57.6" xlink:href="#m2393d8d5b5" y="137.701048"/>
      </g>
     </g>
    </g>
    <g id="ytick_10">
     <g id="line2d_21">
      <g>
       <use style="stroke:#000000;stroke-width:0.6;" x="57.6" xlink:href="#m2393d8d5b5" y="135.252502"/>
      </g>
     </g>
    </g>
    <g id="ytick_11">
     <g id="line2d_22">
      <g>
       <use style="stroke:#000000;stroke-width:0.6;" x="57.6" xlink:href="#m2393d8d5b5" y="133.092732"/>
      </g>
     </g>
    </g>
    <g id="ytick_12">
     <g id="line2d_23">
      <g>
       <use style="stroke:#000000;stroke-width:0.6;" x="57.6" xlink:href="#m2393d8d5b5" y="118.450614"/>
      </g>
     </g>
    </g>
    <g id="ytick_13">
     <g id="line2d_24">
      <g>
       <use style="stroke:#000000;stroke-width:0.6;" x="57.6" xlink:href="#m2393d8d5b5" y="111.01566"/>
      </g>
     </g>
    </g>
    <g id="ytick_14">
     <g id="line2d_25">
      <g>
       <use style="stroke:#000000;stroke-width:0.6;" x="57.6" xlink:href="#m2393d8d5b5" y="105.740477"/>
      </g>
     </g>
    </g>
    <g id="ytick_15">
     <g id="line2d_26">
      <g>
       <use style="stroke:#000000;stroke-width:0.6;" x="57.6" xlink:href="#m2393d8d5b5" y="101.648726"/>
      </g>
     </g>
    </g>
    <g id="ytick_16">
     <g id="line2d_27">
      <g>
       <use style="stroke:#000000;stroke-width:0.6;" x="57.6" xlink:href="#m2393d8d5b5" y="98.305523"/>
      </g>
     </g>
    </g>
    <g id="ytick_17">
     <g id="line2d_28">
      <g>
       <use style="stroke:#000000;stroke-width:0.6;" x="57.6" xlink:href="#m2393d8d5b5" y="95.478885"/>
      </g>
     </g>
    </g>
    <g id="ytick_18">
     <g id="line2d_29">
      <g>
       <use style="stroke:#000000;stroke-width:0.6;" x="57.6" xlink:href="#m2393d8d5b5" y="93.030339"/>
      </g>
     </g>
    </g>
    <g id="ytick_19">
     <g id="line2d_30">
      <g>
       <use style="stroke:#000000;stroke-width:0.6;" x="57.6" xlink:href="#m2393d8d5b5" y="90.870569"/>
      </g>
     </g>
    </g>
    <g id="ytick_20">
     <g id="line2d_31">
      <g>
       <use style="stroke:#000000;stroke-width:0.6;" x="57.6" xlink:href="#m2393d8d5b5" y="76.228451"/>
      </g>
     </g>
    </g>
    <g id="ytick_21">
     <g id="line2d_32">
      <g>
       <use style="stroke:#000000;stroke-width:0.6;" x="57.6" xlink:href="#m2393d8d5b5" y="68.793497"/>
      </g>
     </g>
    </g>
    <g id="ytick_22">
     <g id="line2d_33">
      <g>
       <use style="stroke:#000000;stroke-width:0.6;" x="57.6" xlink:href="#m2393d8d5b5" y="63.518314"/>
      </g>
     </g>
    </g>
    <g id="ytick_23">
     <g id="line2d_34">
      <g>
       <use style="stroke:#000000;stroke-width:0.6;" x="57.6" xlink:href="#m2393d8d5b5" y="59.426563"/>
      </g>
     </g>
    </g>
    <g id="ytick_24">
     <g id="line2d_35">
      <g>
       <use style="stroke:#000000;stroke-width:0.6;" x="57.6" xlink:href="#m2393d8d5b5" y="56.08336"/>
      </g>
     </g>
    </g>
    <g id="ytick_25">
     <g id="line2d_36">
      <g>
       <use style="stroke:#000000;stroke-width:0.6;" x="57.6" xlink:href="#m2393d8d5b5" y="53.256722"/>
      </g>
     </g>
    </g>
    <g id="ytick_26">
     <g id="line2d_37">
      <g>
       <use style="stroke:#000000;stroke-width:0.6;" x="57.6" xlink:href="#m2393d8d5b5" y="50.808176"/>
      </g>
     </g>
    </g>
    <g id="ytick_27">
     <g id="line2d_38">
      <g>
       <use style="stroke:#000000;stroke-width:0.6;" x="57.6" xlink:href="#m2393d8d5b5" y="48.648406"/>
      </g>
     </g>
    </g>
   </g>
   <g id="line2d_39">
    <path clip-path="url(#p5fd4f48fc2)" d="M 84.823275 54.15138 
L 108.438829 54.15138 
L 138.363965 65.678084 
L 167.343903 91.098359 
L 194.602713 84.558063 
L 221.541652 87.006609 
L 248.547304 98.121231 
L 276.537421 102.543384 
L 303.84854 126.248686 
L 330.983423 110.831369 
L 358.437846 135.398613 
L 385.722369 139.490364 
" style="fill:none;stroke:#1f77b4;stroke-linecap:square;stroke-width:1.5;"/>
   </g>
   <g id="line2d_40">
    <path clip-path="url(#p5fd4f48fc2)" d="M 73.832727 46.970182 
L 84.823275 50.534144 
L 94.856858 53.787786 
L 104.086861 56.780847 
L 112.632508 59.551988 
L 128.030476 64.545168 
L 135.021312 66.812122 
L 141.612447 68.949464 
L 147.847125 70.971215 
L 159.388096 74.713666 
L 164.75248 76.453203 
L 184.016066 82.699906 
L 200.517521 88.050918 
L 204.298629 89.277038 
L 207.959682 90.464227 
L 214.950517 92.731181 
L 218.293171 93.815121 
L 224.701123 95.893061 
L 244.681686 102.372262 
L 254.71527 105.625904 
L 261.706105 107.892859 
L 284.227835 115.196097 
L 291.437274 117.533939 
L 321.959891 127.431667 
L 328.47651 129.544845 
L 330.983423 130.357775 
L 351.385917 136.973797 
L 398.487273 152.247599 
" style="fill:none;stroke:#ff7f0e;stroke-dasharray:1.5,2.475;stroke-dashoffset:0;stroke-width:1.5;"/>
   </g>
   <g id="line2d_41">
    <path clip-path="url(#p5fd4f48fc2)" d="M 73.832727 53.63498 
L 84.823275 55.660479 
L 94.856858 57.599094 
L 104.086861 59.457852 
L 112.632508 61.243207 
L 128.030476 64.61647 
L 135.021312 66.214325 
L 141.612447 67.758777 
L 147.847125 69.253606 
L 159.388096 72.107649 
L 164.75248 73.472691 
L 184.016066 78.575728 
L 200.517521 83.197296 
L 204.298629 84.288792 
L 207.959682 85.357183 
L 214.950517 87.428871 
L 218.293171 88.434091 
L 224.701123 90.387621 
L 244.681686 96.702497 
L 254.71527 100.001339 
L 261.706105 102.350261 
L 284.227835 110.199481 
L 291.437274 112.803013 
L 321.959891 124.314099 
L 328.47651 126.874118 
L 330.983423 127.868541 
L 351.385917 136.159922 
L 398.487273 156.650279 
" style="fill:none;stroke:#2ca02c;stroke-dasharray:9.6,2.4,1.5,2.4;stroke-dashoffset:0;stroke-width:1.5;"/>
   </g>
   <g id="line2d_42">
    <path clip-path="url(#p5fd4f48fc2)" d="M 73.832727 52.645724 
L 84.823275 55.159902 
L 94.856858 57.475674 
L 104.086861 59.624841 
L 112.632508 61.632123 
L 128.030476 65.295612 
L 135.021312 66.980537 
L 141.612447 68.582593 
L 147.847125 70.110746 
L 159.388096 72.974572 
L 164.75248 74.322288 
L 184.016066 79.258287 
L 200.517521 83.621618 
L 204.298629 84.641077 
L 207.959682 85.635645 
L 214.950517 87.5561 
L 218.293171 88.484655 
L 224.701123 90.284262 
L 244.681686 96.075498 
L 254.71527 99.097858 
L 261.706105 101.253842 
L 284.227835 108.514051 
L 291.437274 110.950887 
L 321.959891 121.989668 
L 328.47651 124.518393 
L 330.983423 125.509205 
L 351.385917 133.978742 
L 398.487273 156.933818 
" style="fill:none;stroke:#d62728;stroke-dasharray:5.55,2.4;stroke-dashoffset:0;stroke-width:1.5;"/>
   </g>
   <g id="patch_3">
    <path d="M 57.6 162.432 
L 57.6 41.472 
" style="fill:none;stroke:#000000;stroke-linecap:square;stroke-linejoin:miter;stroke-width:0.8;"/>
   </g>
   <g id="patch_4">
    <path d="M 414.72 162.432 
L 414.72 41.472 
" style="fill:none;stroke:#000000;stroke-linecap:square;stroke-linejoin:miter;stroke-width:0.8;"/>
   </g>
   <g id="patch_5">
    <path d="M 57.6 162.432 
L 414.72 162.432 
" style="fill:none;stroke:#000000;stroke-linecap:square;stroke-linejoin:miter;stroke-width:0.8;"/>
   </g>
   <g id="patch_6">
    <path d="M 57.6 41.472 
L 414.72 41.472 
" style="fill:none;stroke:#000000;stroke-linecap:square;stroke-linejoin:miter;stroke-width:0.8;"/>
   </g>
   <g id="legend_1">
    <g id="patch_7">
     <path d="M 298.739063 81.4995 
L 410.52 81.4995 
Q 411.72 81.4995 411.72 80.2995 
L 411.72 45.672 
Q 411.72 44.472 410.52 44.472 
L 298.739063 44.472 
Q 297.539063 44.472 297.539063 45.672 
L 297.539063 80.2995 
Q 297.539063 81.4995 298.739063 81.4995 
z
" style="fill:#ffffff;opacity:0.8;stroke:#cccccc;stroke-linejoin:miter;"/>
    </g>
    <g id="line2d_43">
     <path d="M 299.939063 49.331062 
L 311.939063 49.331062 
" style="fill:none;stroke:#1f77b4;stroke-linecap:square;stroke-width:1.5;"/>
    </g>
    <g id="line2d_44"/>
    <g id="text_6">
     <!--  2017 Data as PDF -->
     <defs>
      <path id="DejaVuSans-32"/>
      <path d="M 8.203125 72.90625 
L 55.078125 72.90625 
L 55.078125 68.703125 
L 28.609375 0 
L 18.3125 0 
L 43.21875 64.59375 
L 8.203125 64.59375 
z
" id="DejaVuSans-55"/>
      <path d="M 19.671875 64.796875 
L 19.671875 8.109375 
L 31.59375 8.109375 
Q 46.6875 8.109375 53.6875 14.9375 
Q 60.6875 21.78125 60.6875 36.53125 
Q 60.6875 51.171875 53.6875 57.984375 
Q 46.6875 64.796875 31.59375 64.796875 
z
M 9.8125 72.90625 
L 30.078125 72.90625 
Q 51.265625 72.90625 61.171875 64.09375 
Q 71.09375 55.28125 71.09375 36.53125 
Q 71.09375 17.671875 61.125 8.828125 
Q 51.171875 0 30.078125 0 
L 9.8125 0 
z
" id="DejaVuSans-68"/>
      <path d="M 34.28125 27.484375 
Q 23.390625 27.484375 19.1875 25 
Q 14.984375 22.515625 14.984375 16.5 
Q 14.984375 11.71875 18.140625 8.90625 
Q 21.296875 6.109375 26.703125 6.109375 
Q 34.1875 6.109375 38.703125 11.40625 
Q 43.21875 16.703125 43.21875 25.484375 
L 43.21875 27.484375 
z
M 52.203125 31.203125 
L 52.203125 0 
L 43.21875 0 
L 43.21875 8.296875 
Q 40.140625 3.328125 35.546875 0.953125 
Q 30.953125 -1.421875 24.3125 -1.421875 
Q 15.921875 -1.421875 10.953125 3.296875 
Q 6 8.015625 6 15.921875 
Q 6 25.140625 12.171875 29.828125 
Q 18.359375 34.515625 30.609375 34.515625 
L 43.21875 34.515625 
L 43.21875 35.40625 
Q 43.21875 41.609375 39.140625 45 
Q 35.0625 48.390625 27.6875 48.390625 
Q 23 48.390625 18.546875 47.265625 
Q 14.109375 46.140625 10.015625 43.890625 
L 10.015625 52.203125 
Q 14.9375 54.109375 19.578125 55.046875 
Q 24.21875 56 28.609375 56 
Q 40.484375 56 46.34375 49.84375 
Q 52.203125 43.703125 52.203125 31.203125 
z
" id="DejaVuSans-97"/>
      <path d="M 18.3125 70.21875 
L 18.3125 54.6875 
L 36.8125 54.6875 
L 36.8125 47.703125 
L 18.3125 47.703125 
L 18.3125 18.015625 
Q 18.3125 11.328125 20.140625 9.421875 
Q 21.96875 7.515625 27.59375 7.515625 
L 36.8125 7.515625 
L 36.8125 0 
L 27.59375 0 
Q 17.1875 0 13.234375 3.875 
Q 9.28125 7.765625 9.28125 18.015625 
L 9.28125 47.703125 
L 2.6875 47.703125 
L 2.6875 54.6875 
L 9.28125 54.6875 
L 9.28125 70.21875 
z
" id="DejaVuSans-116"/>
      <path d="M 44.28125 53.078125 
L 44.28125 44.578125 
Q 40.484375 46.53125 36.375 47.5 
Q 32.28125 48.484375 27.875 48.484375 
Q 21.1875 48.484375 17.84375 46.4375 
Q 14.5 44.390625 14.5 40.28125 
Q 14.5 37.15625 16.890625 35.375 
Q 19.28125 33.59375 26.515625 31.984375 
L 29.59375 31.296875 
Q 39.15625 29.25 43.1875 25.515625 
Q 47.21875 21.78125 47.21875 15.09375 
Q 47.21875 7.46875 41.1875 3.015625 
Q 35.15625 -1.421875 24.609375 -1.421875 
Q 20.21875 -1.421875 15.453125 -0.5625 
Q 10.6875 0.296875 5.421875 2 
L 5.421875 11.28125 
Q 10.40625 8.6875 15.234375 7.390625 
Q 20.0625 6.109375 24.8125 6.109375 
Q 31.15625 6.109375 34.5625 8.28125 
Q 37.984375 10.453125 37.984375 14.40625 
Q 37.984375 18.0625 35.515625 20.015625 
Q 33.0625 21.96875 24.703125 23.78125 
L 21.578125 24.515625 
Q 13.234375 26.265625 9.515625 29.90625 
Q 5.8125 33.546875 5.8125 39.890625 
Q 5.8125 47.609375 11.28125 51.796875 
Q 16.75 56 26.8125 56 
Q 31.78125 56 36.171875 55.265625 
Q 40.578125 54.546875 44.28125 53.078125 
z
" id="DejaVuSans-115"/>
      <path d="M 19.671875 64.796875 
L 19.671875 37.40625 
L 32.078125 37.40625 
Q 38.96875 37.40625 42.71875 40.96875 
Q 46.484375 44.53125 46.484375 51.125 
Q 46.484375 57.671875 42.71875 61.234375 
Q 38.96875 64.796875 32.078125 64.796875 
z
M 9.8125 72.90625 
L 32.078125 72.90625 
Q 44.34375 72.90625 50.609375 67.359375 
Q 56.890625 61.8125 56.890625 51.125 
Q 56.890625 40.328125 50.609375 34.8125 
Q 44.34375 29.296875 32.078125 29.296875 
L 19.671875 29.296875 
L 19.671875 0 
L 9.8125 0 
z
" id="DejaVuSans-80"/>
      <path d="M 9.8125 72.90625 
L 51.703125 72.90625 
L 51.703125 64.59375 
L 19.671875 64.59375 
L 19.671875 43.109375 
L 48.578125 43.109375 
L 48.578125 34.8125 
L 19.671875 34.8125 
L 19.671875 0 
L 9.8125 0 
z
" id="DejaVuSans-70"/>
     </defs>
     <g transform="translate(316.739063 51.431062)scale(0.06 -0.06)">
      <use xlink:href="#DejaVuSans-32"/>
      <use x="31.787109" xlink:href="#DejaVuSans-50"/>
      <use x="95.410156" xlink:href="#DejaVuSans-48"/>
      <use x="159.033203" xlink:href="#DejaVuSans-49"/>
      <use x="222.65625" xlink:href="#DejaVuSans-55"/>
      <use x="286.279297" xlink:href="#DejaVuSans-32"/>
      <use x="318.066406" xlink:href="#DejaVuSans-68"/>
      <use x="395.068359" xlink:href="#DejaVuSans-97"/>
      <use x="456.347656" xlink:href="#DejaVuSans-116"/>
      <use x="495.556641" xlink:href="#DejaVuSans-97"/>
      <use x="556.835938" xlink:href="#DejaVuSans-32"/>
      <use x="588.623047" xlink:href="#DejaVuSans-97"/>
      <use x="649.902344" xlink:href="#DejaVuSans-115"/>
      <use x="702.001953" xlink:href="#DejaVuSans-32"/>
      <use x="733.789062" xlink:href="#DejaVuSans-80"/>
      <use x="794.091797" xlink:href="#DejaVuSans-68"/>
      <use x="871.09375" xlink:href="#DejaVuSans-70"/>
     </g>
    </g>
    <g id="line2d_45">
     <path d="M 299.939063 58.137937 
L 311.939063 58.137937 
" style="fill:none;stroke:#ff7f0e;stroke-dasharray:1.5,2.475;stroke-dashoffset:0;stroke-width:1.5;"/>
    </g>
    <g id="line2d_46"/>
    <g id="text_7">
     <!-- Fitted Powerlaw PDF -->
     <defs>
      <path d="M 9.421875 54.6875 
L 18.40625 54.6875 
L 18.40625 0 
L 9.421875 0 
z
M 9.421875 75.984375 
L 18.40625 75.984375 
L 18.40625 64.59375 
L 9.421875 64.59375 
z
" id="DejaVuSans-105"/>
      <path d="M 56.203125 29.59375 
L 56.203125 25.203125 
L 14.890625 25.203125 
Q 15.484375 15.921875 20.484375 11.0625 
Q 25.484375 6.203125 34.421875 6.203125 
Q 39.59375 6.203125 44.453125 7.46875 
Q 49.3125 8.734375 54.109375 11.28125 
L 54.109375 2.78125 
Q 49.265625 0.734375 44.1875 -0.34375 
Q 39.109375 -1.421875 33.890625 -1.421875 
Q 20.796875 -1.421875 13.15625 6.1875 
Q 5.515625 13.8125 5.515625 26.8125 
Q 5.515625 40.234375 12.765625 48.109375 
Q 20.015625 56 32.328125 56 
Q 43.359375 56 49.78125 48.890625 
Q 56.203125 41.796875 56.203125 29.59375 
z
M 47.21875 32.234375 
Q 47.125 39.59375 43.09375 43.984375 
Q 39.0625 48.390625 32.421875 48.390625 
Q 24.90625 48.390625 20.390625 44.140625 
Q 15.875 39.890625 15.1875 32.171875 
z
" id="DejaVuSans-101"/>
      <path d="M 45.40625 46.390625 
L 45.40625 75.984375 
L 54.390625 75.984375 
L 54.390625 0 
L 45.40625 0 
L 45.40625 8.203125 
Q 42.578125 3.328125 38.25 0.953125 
Q 33.9375 -1.421875 27.875 -1.421875 
Q 17.96875 -1.421875 11.734375 6.484375 
Q 5.515625 14.40625 5.515625 27.296875 
Q 5.515625 40.1875 11.734375 48.09375 
Q 17.96875 56 27.875 56 
Q 33.9375 56 38.25 53.625 
Q 42.578125 51.265625 45.40625 46.390625 
z
M 14.796875 27.296875 
Q 14.796875 17.390625 18.875 11.75 
Q 22.953125 6.109375 30.078125 6.109375 
Q 37.203125 6.109375 41.296875 11.75 
Q 45.40625 17.390625 45.40625 27.296875 
Q 45.40625 37.203125 41.296875 42.84375 
Q 37.203125 48.484375 30.078125 48.484375 
Q 22.953125 48.484375 18.875 42.84375 
Q 14.796875 37.203125 14.796875 27.296875 
z
" id="DejaVuSans-100"/>
      <path d="M 30.609375 48.390625 
Q 23.390625 48.390625 19.1875 42.75 
Q 14.984375 37.109375 14.984375 27.296875 
Q 14.984375 17.484375 19.15625 11.84375 
Q 23.34375 6.203125 30.609375 6.203125 
Q 37.796875 6.203125 41.984375 11.859375 
Q 46.1875 17.53125 46.1875 27.296875 
Q 46.1875 37.015625 41.984375 42.703125 
Q 37.796875 48.390625 30.609375 48.390625 
z
M 30.609375 56 
Q 42.328125 56 49.015625 48.375 
Q 55.71875 40.765625 55.71875 27.296875 
Q 55.71875 13.875 49.015625 6.21875 
Q 42.328125 -1.421875 30.609375 -1.421875 
Q 18.84375 -1.421875 12.171875 6.21875 
Q 5.515625 13.875 5.515625 27.296875 
Q 5.515625 40.765625 12.171875 48.375 
Q 18.84375 56 30.609375 56 
z
" id="DejaVuSans-111"/>
      <path d="M 4.203125 54.6875 
L 13.1875 54.6875 
L 24.421875 12.015625 
L 35.59375 54.6875 
L 46.1875 54.6875 
L 57.421875 12.015625 
L 68.609375 54.6875 
L 77.59375 54.6875 
L 63.28125 0 
L 52.6875 0 
L 40.921875 44.828125 
L 29.109375 0 
L 18.5 0 
z
" id="DejaVuSans-119"/>
      <path d="M 41.109375 46.296875 
Q 39.59375 47.171875 37.8125 47.578125 
Q 36.03125 48 33.890625 48 
Q 26.265625 48 22.1875 43.046875 
Q 18.109375 38.09375 18.109375 28.8125 
L 18.109375 0 
L 9.078125 0 
L 9.078125 54.6875 
L 18.109375 54.6875 
L 18.109375 46.1875 
Q 20.953125 51.171875 25.484375 53.578125 
Q 30.03125 56 36.53125 56 
Q 37.453125 56 38.578125 55.875 
Q 39.703125 55.765625 41.0625 55.515625 
z
" id="DejaVuSans-114"/>
      <path d="M 9.421875 75.984375 
L 18.40625 75.984375 
L 18.40625 0 
L 9.421875 0 
z
" id="DejaVuSans-108"/>
     </defs>
     <g transform="translate(316.739063 60.237937)scale(0.06 -0.06)">
      <use xlink:href="#DejaVuSans-70"/>
      <use x="57.410156" xlink:href="#DejaVuSans-105"/>
      <use x="85.193359" xlink:href="#DejaVuSans-116"/>
      <use x="124.402344" xlink:href="#DejaVuSans-116"/>
      <use x="163.611328" xlink:href="#DejaVuSans-101"/>
      <use x="225.134766" xlink:href="#DejaVuSans-100"/>
      <use x="288.611328" xlink:href="#DejaVuSans-32"/>
      <use x="320.398438" xlink:href="#DejaVuSans-80"/>
      <use x="380.654297" xlink:href="#DejaVuSans-111"/>
      <use x="441.835938" xlink:href="#DejaVuSans-119"/>
      <use x="523.623047" xlink:href="#DejaVuSans-101"/>
      <use x="585.146484" xlink:href="#DejaVuSans-114"/>
      <use x="626.259766" xlink:href="#DejaVuSans-108"/>
      <use x="654.042969" xlink:href="#DejaVuSans-97"/>
      <use x="715.322266" xlink:href="#DejaVuSans-119"/>
      <use x="797.109375" xlink:href="#DejaVuSans-32"/>
      <use x="828.896484" xlink:href="#DejaVuSans-80"/>
      <use x="889.199219" xlink:href="#DejaVuSans-68"/>
      <use x="966.201172" xlink:href="#DejaVuSans-70"/>
     </g>
    </g>
    <g id="line2d_47">
     <path d="M 299.939063 66.944812 
L 311.939063 66.944812 
" style="fill:none;stroke:#2ca02c;stroke-dasharray:9.6,2.4,1.5,2.4;stroke-dashoffset:0;stroke-width:1.5;"/>
    </g>
    <g id="line2d_48"/>
    <g id="text_8">
     <!-- Fitted Lognormal PDF -->
     <defs>
      <path d="M 9.8125 72.90625 
L 19.671875 72.90625 
L 19.671875 8.296875 
L 55.171875 8.296875 
L 55.171875 0 
L 9.8125 0 
z
" id="DejaVuSans-76"/>
      <path d="M 45.40625 27.984375 
Q 45.40625 37.75 41.375 43.109375 
Q 37.359375 48.484375 30.078125 48.484375 
Q 22.859375 48.484375 18.828125 43.109375 
Q 14.796875 37.75 14.796875 27.984375 
Q 14.796875 18.265625 18.828125 12.890625 
Q 22.859375 7.515625 30.078125 7.515625 
Q 37.359375 7.515625 41.375 12.890625 
Q 45.40625 18.265625 45.40625 27.984375 
z
M 54.390625 6.78125 
Q 54.390625 -7.171875 48.1875 -13.984375 
Q 42 -20.796875 29.203125 -20.796875 
Q 24.46875 -20.796875 20.265625 -20.09375 
Q 16.0625 -19.390625 12.109375 -17.921875 
L 12.109375 -9.1875 
Q 16.0625 -11.328125 19.921875 -12.34375 
Q 23.78125 -13.375 27.78125 -13.375 
Q 36.625 -13.375 41.015625 -8.765625 
Q 45.40625 -4.15625 45.40625 5.171875 
L 45.40625 9.625 
Q 42.625 4.78125 38.28125 2.390625 
Q 33.9375 0 27.875 0 
Q 17.828125 0 11.671875 7.65625 
Q 5.515625 15.328125 5.515625 27.984375 
Q 5.515625 40.671875 11.671875 48.328125 
Q 17.828125 56 27.875 56 
Q 33.9375 56 38.28125 53.609375 
Q 42.625 51.21875 45.40625 46.390625 
L 45.40625 54.6875 
L 54.390625 54.6875 
z
" id="DejaVuSans-103"/>
      <path d="M 54.890625 33.015625 
L 54.890625 0 
L 45.90625 0 
L 45.90625 32.71875 
Q 45.90625 40.484375 42.875 44.328125 
Q 39.84375 48.1875 33.796875 48.1875 
Q 26.515625 48.1875 22.3125 43.546875 
Q 18.109375 38.921875 18.109375 30.90625 
L 18.109375 0 
L 9.078125 0 
L 9.078125 54.6875 
L 18.109375 54.6875 
L 18.109375 46.1875 
Q 21.34375 51.125 25.703125 53.5625 
Q 30.078125 56 35.796875 56 
Q 45.21875 56 50.046875 50.171875 
Q 54.890625 44.34375 54.890625 33.015625 
z
" id="DejaVuSans-110"/>
      <path d="M 52 44.1875 
Q 55.375 50.25 60.0625 53.125 
Q 64.75 56 71.09375 56 
Q 79.640625 56 84.28125 50.015625 
Q 88.921875 44.046875 88.921875 33.015625 
L 88.921875 0 
L 79.890625 0 
L 79.890625 32.71875 
Q 79.890625 40.578125 77.09375 44.375 
Q 74.3125 48.1875 68.609375 48.1875 
Q 61.625 48.1875 57.5625 43.546875 
Q 53.515625 38.921875 53.515625 30.90625 
L 53.515625 0 
L 44.484375 0 
L 44.484375 32.71875 
Q 44.484375 40.625 41.703125 44.40625 
Q 38.921875 48.1875 33.109375 48.1875 
Q 26.21875 48.1875 22.15625 43.53125 
Q 18.109375 38.875 18.109375 30.90625 
L 18.109375 0 
L 9.078125 0 
L 9.078125 54.6875 
L 18.109375 54.6875 
L 18.109375 46.1875 
Q 21.1875 51.21875 25.484375 53.609375 
Q 29.78125 56 35.6875 56 
Q 41.65625 56 45.828125 52.96875 
Q 50 49.953125 52 44.1875 
z
" id="DejaVuSans-109"/>
     </defs>
     <g transform="translate(316.739063 69.044812)scale(0.06 -0.06)">
      <use xlink:href="#DejaVuSans-70"/>
      <use x="57.410156" xlink:href="#DejaVuSans-105"/>
      <use x="85.193359" xlink:href="#DejaVuSans-116"/>
      <use x="124.402344" xlink:href="#DejaVuSans-116"/>
      <use x="163.611328" xlink:href="#DejaVuSans-101"/>
      <use x="225.134766" xlink:href="#DejaVuSans-100"/>
      <use x="288.611328" xlink:href="#DejaVuSans-32"/>
      <use x="320.398438" xlink:href="#DejaVuSans-76"/>
      <use x="376.095703" xlink:href="#DejaVuSans-111"/>
      <use x="437.277344" xlink:href="#DejaVuSans-103"/>
      <use x="500.753906" xlink:href="#DejaVuSans-110"/>
      <use x="564.132812" xlink:href="#DejaVuSans-111"/>
      <use x="625.314453" xlink:href="#DejaVuSans-114"/>
      <use x="666.412109" xlink:href="#DejaVuSans-109"/>
      <use x="763.824219" xlink:href="#DejaVuSans-97"/>
      <use x="825.103516" xlink:href="#DejaVuSans-108"/>
      <use x="852.886719" xlink:href="#DejaVuSans-32"/>
      <use x="884.673828" xlink:href="#DejaVuSans-80"/>
      <use x="944.976562" xlink:href="#DejaVuSans-68"/>
      <use x="1021.978516" xlink:href="#DejaVuSans-70"/>
     </g>
    </g>
    <g id="line2d_49">
     <path d="M 299.939063 75.751687 
L 311.939063 75.751687 
" style="fill:none;stroke:#d62728;stroke-dasharray:5.55,2.4;stroke-dashoffset:0;stroke-width:1.5;"/>
    </g>
    <g id="line2d_50"/>
    <g id="text_9">
     <!-- Fitted truncated Powerlaw PDF -->
     <defs>
      <path d="M 8.5 21.578125 
L 8.5 54.6875 
L 17.484375 54.6875 
L 17.484375 21.921875 
Q 17.484375 14.15625 20.5 10.265625 
Q 23.53125 6.390625 29.59375 6.390625 
Q 36.859375 6.390625 41.078125 11.03125 
Q 45.3125 15.671875 45.3125 23.6875 
L 45.3125 54.6875 
L 54.296875 54.6875 
L 54.296875 0 
L 45.3125 0 
L 45.3125 8.40625 
Q 42.046875 3.421875 37.71875 1 
Q 33.40625 -1.421875 27.6875 -1.421875 
Q 18.265625 -1.421875 13.375 4.4375 
Q 8.5 10.296875 8.5 21.578125 
z
M 31.109375 56 
z
" id="DejaVuSans-117"/>
      <path d="M 48.78125 52.59375 
L 48.78125 44.1875 
Q 44.96875 46.296875 41.140625 47.34375 
Q 37.3125 48.390625 33.40625 48.390625 
Q 24.65625 48.390625 19.8125 42.84375 
Q 14.984375 37.3125 14.984375 27.296875 
Q 14.984375 17.28125 19.8125 11.734375 
Q 24.65625 6.203125 33.40625 6.203125 
Q 37.3125 6.203125 41.140625 7.25 
Q 44.96875 8.296875 48.78125 10.40625 
L 48.78125 2.09375 
Q 45.015625 0.34375 40.984375 -0.53125 
Q 36.96875 -1.421875 32.421875 -1.421875 
Q 20.0625 -1.421875 12.78125 6.34375 
Q 5.515625 14.109375 5.515625 27.296875 
Q 5.515625 40.671875 12.859375 48.328125 
Q 20.21875 56 33.015625 56 
Q 37.15625 56 41.109375 55.140625 
Q 45.0625 54.296875 48.78125 52.59375 
z
" id="DejaVuSans-99"/>
     </defs>
     <g transform="translate(316.739063 77.851687)scale(0.06 -0.06)">
      <use xlink:href="#DejaVuSans-70"/>
      <use x="57.410156" xlink:href="#DejaVuSans-105"/>
      <use x="85.193359" xlink:href="#DejaVuSans-116"/>
      <use x="124.402344" xlink:href="#DejaVuSans-116"/>
      <use x="163.611328" xlink:href="#DejaVuSans-101"/>
      <use x="225.134766" xlink:href="#DejaVuSans-100"/>
      <use x="288.611328" xlink:href="#DejaVuSans-32"/>
      <use x="320.398438" xlink:href="#DejaVuSans-116"/>
      <use x="359.607422" xlink:href="#DejaVuSans-114"/>
      <use x="400.720703" xlink:href="#DejaVuSans-117"/>
      <use x="464.099609" xlink:href="#DejaVuSans-110"/>
      <use x="527.478516" xlink:href="#DejaVuSans-99"/>
      <use x="582.458984" xlink:href="#DejaVuSans-97"/>
      <use x="643.738281" xlink:href="#DejaVuSans-116"/>
      <use x="682.947266" xlink:href="#DejaVuSans-101"/>
      <use x="744.470703" xlink:href="#DejaVuSans-100"/>
      <use x="807.947266" xlink:href="#DejaVuSans-32"/>
      <use x="839.734375" xlink:href="#DejaVuSans-80"/>
      <use x="899.990234" xlink:href="#DejaVuSans-111"/>
      <use x="961.171875" xlink:href="#DejaVuSans-119"/>
      <use x="1042.958984" xlink:href="#DejaVuSans-101"/>
      <use x="1104.482422" xlink:href="#DejaVuSans-114"/>
      <use x="1145.595703" xlink:href="#DejaVuSans-108"/>
      <use x="1173.378906" xlink:href="#DejaVuSans-97"/>
      <use x="1234.658203" xlink:href="#DejaVuSans-119"/>
      <use x="1316.445312" xlink:href="#DejaVuSans-32"/>
      <use x="1348.232422" xlink:href="#DejaVuSans-80"/>
      <use x="1408.535156" xlink:href="#DejaVuSans-68"/>
      <use x="1485.537109" xlink:href="#DejaVuSans-70"/>
     </g>
    </g>
   </g>
  </g>
  <g id="axes_2">
   <g id="patch_8">
    <path d="M 57.6 307.584 
L 414.72 307.584 
L 414.72 186.624 
L 57.6 186.624 
z
" style="fill:#ffffff;"/>
   </g>
   <g id="matplotlib.axis_3">
    <g id="xtick_12">
     <g id="line2d_51">
      <g>
       <use style="stroke:#000000;stroke-width:0.8;" x="83.329402" xlink:href="#mc41aa70039" y="307.584"/>
      </g>
     </g>
     <g id="text_10">
      <!-- $\mathdefault{10^{1}}$ -->
      <g transform="translate(74.529402 322.182437)scale(0.1 -0.1)">
       <use transform="translate(0 0.684375)" xlink:href="#DejaVuSans-49"/>
       <use transform="translate(63.623047 0.684375)" xlink:href="#DejaVuSans-48"/>
       <use transform="translate(128.203125 38.965625)scale(0.7)" xlink:href="#DejaVuSans-49"/>
      </g>
     </g>
    </g>
    <g id="xtick_13">
     <g id="line2d_52">
      <g>
       <use style="stroke:#000000;stroke-width:0.8;" x="290.873016" xlink:href="#mc41aa70039" y="307.584"/>
      </g>
     </g>
     <g id="text_11">
      <!-- $\mathdefault{10^{2}}$ -->
      <g transform="translate(282.073016 322.182437)scale(0.1 -0.1)">
       <use transform="translate(0 0.765625)" xlink:href="#DejaVuSans-49"/>
       <use transform="translate(63.623047 0.765625)" xlink:href="#DejaVuSans-48"/>
       <use transform="translate(128.203125 39.046875)scale(0.7)" xlink:href="#DejaVuSans-50"/>
      </g>
     </g>
    </g>
    <g id="xtick_14">
     <g id="line2d_53">
      <g>
       <use style="stroke:#000000;stroke-width:0.6;" x="63.216348" xlink:href="#m993e94253e" y="307.584"/>
      </g>
     </g>
    </g>
    <g id="xtick_15">
     <g id="line2d_54">
      <g>
       <use style="stroke:#000000;stroke-width:0.6;" x="73.832727" xlink:href="#m993e94253e" y="307.584"/>
      </g>
     </g>
    </g>
    <g id="xtick_16">
     <g id="line2d_55">
      <g>
       <use style="stroke:#000000;stroke-width:0.6;" x="145.806255" xlink:href="#m993e94253e" y="307.584"/>
      </g>
     </g>
    </g>
    <g id="xtick_17">
     <g id="line2d_56">
      <g>
       <use style="stroke:#000000;stroke-width:0.6;" x="182.352872" xlink:href="#m993e94253e" y="307.584"/>
      </g>
     </g>
    </g>
    <g id="xtick_18">
     <g id="line2d_57">
      <g>
       <use style="stroke:#000000;stroke-width:0.6;" x="208.283108" xlink:href="#m993e94253e" y="307.584"/>
      </g>
     </g>
    </g>
    <g id="xtick_19">
     <g id="line2d_58">
      <g>
       <use style="stroke:#000000;stroke-width:0.6;" x="228.396163" xlink:href="#m993e94253e" y="307.584"/>
      </g>
     </g>
    </g>
    <g id="xtick_20">
     <g id="line2d_59">
      <g>
       <use style="stroke:#000000;stroke-width:0.6;" x="244.829725" xlink:href="#m993e94253e" y="307.584"/>
      </g>
     </g>
    </g>
    <g id="xtick_21">
     <g id="line2d_60">
      <g>
       <use style="stroke:#000000;stroke-width:0.6;" x="258.724103" xlink:href="#m993e94253e" y="307.584"/>
      </g>
     </g>
    </g>
    <g id="xtick_22">
     <g id="line2d_61">
      <g>
       <use style="stroke:#000000;stroke-width:0.6;" x="270.759962" xlink:href="#m993e94253e" y="307.584"/>
      </g>
     </g>
    </g>
    <g id="xtick_23">
     <g id="line2d_62">
      <g>
       <use style="stroke:#000000;stroke-width:0.6;" x="281.376341" xlink:href="#m993e94253e" y="307.584"/>
      </g>
     </g>
    </g>
    <g id="xtick_24">
     <g id="line2d_63">
      <g>
       <use style="stroke:#000000;stroke-width:0.6;" x="353.349869" xlink:href="#m993e94253e" y="307.584"/>
      </g>
     </g>
    </g>
    <g id="xtick_25">
     <g id="line2d_64">
      <g>
       <use style="stroke:#000000;stroke-width:0.6;" x="389.896485" xlink:href="#m993e94253e" y="307.584"/>
      </g>
     </g>
    </g>
   </g>
   <g id="matplotlib.axis_4">
    <g id="ytick_28">
     <g id="line2d_65">
      <g>
       <use style="stroke:#000000;stroke-width:0.8;" x="57.6" xlink:href="#m79af7b57ec" y="299.121749"/>
      </g>
     </g>
     <g id="text_12">
      <!-- $\mathdefault{10^{-4}}$ -->
      <defs>
       <path d="M 37.796875 64.3125 
L 12.890625 25.390625 
L 37.796875 25.390625 
z
M 35.203125 72.90625 
L 47.609375 72.90625 
L 47.609375 25.390625 
L 58.015625 25.390625 
L 58.015625 17.1875 
L 47.609375 17.1875 
L 47.609375 0 
L 37.796875 0 
L 37.796875 17.1875 
L 4.890625 17.1875 
L 4.890625 26.703125 
z
" id="DejaVuSans-52"/>
      </defs>
      <g transform="translate(27.1 302.920968)scale(0.1 -0.1)">
       <use transform="translate(0 0.684375)" xlink:href="#DejaVuSans-49"/>
       <use transform="translate(63.623047 0.684375)" xlink:href="#DejaVuSans-48"/>
       <use transform="translate(128.203125 38.965625)scale(0.7)" xlink:href="#DejaVuSans-8722"/>
       <use transform="translate(186.855469 38.965625)scale(0.7)" xlink:href="#DejaVuSans-52"/>
      </g>
     </g>
    </g>
    <g id="ytick_29">
     <g id="line2d_66">
      <g>
       <use style="stroke:#000000;stroke-width:0.8;" x="57.6" xlink:href="#m79af7b57ec" y="262.820614"/>
      </g>
     </g>
     <g id="text_13">
      <!-- $\mathdefault{10^{-3}}$ -->
      <g transform="translate(27.1 266.619833)scale(0.1 -0.1)">
       <use transform="translate(0 0.765625)" xlink:href="#DejaVuSans-49"/>
       <use transform="translate(63.623047 0.765625)" xlink:href="#DejaVuSans-48"/>
       <use transform="translate(128.203125 39.046875)scale(0.7)" xlink:href="#DejaVuSans-8722"/>
       <use transform="translate(186.855469 39.046875)scale(0.7)" xlink:href="#DejaVuSans-51"/>
      </g>
     </g>
    </g>
    <g id="ytick_30">
     <g id="line2d_67">
      <g>
       <use style="stroke:#000000;stroke-width:0.8;" x="57.6" xlink:href="#m79af7b57ec" y="226.519479"/>
      </g>
     </g>
     <g id="text_14">
      <!-- $\mathdefault{10^{-2}}$ -->
      <g transform="translate(27.1 230.318698)scale(0.1 -0.1)">
       <use transform="translate(0 0.765625)" xlink:href="#DejaVuSans-49"/>
       <use transform="translate(63.623047 0.765625)" xlink:href="#DejaVuSans-48"/>
       <use transform="translate(128.203125 39.046875)scale(0.7)" xlink:href="#DejaVuSans-8722"/>
       <use transform="translate(186.855469 39.046875)scale(0.7)" xlink:href="#DejaVuSans-50"/>
      </g>
     </g>
    </g>
    <g id="ytick_31">
     <g id="line2d_68">
      <g>
       <use style="stroke:#000000;stroke-width:0.8;" x="57.6" xlink:href="#m79af7b57ec" y="190.218344"/>
      </g>
     </g>
     <g id="text_15">
      <!-- $\mathdefault{10^{-1}}$ -->
      <g transform="translate(27.1 194.017563)scale(0.1 -0.1)">
       <use transform="translate(0 0.684375)" xlink:href="#DejaVuSans-49"/>
       <use transform="translate(63.623047 0.684375)" xlink:href="#DejaVuSans-48"/>
       <use transform="translate(128.203125 38.965625)scale(0.7)" xlink:href="#DejaVuSans-8722"/>
       <use transform="translate(186.855469 38.965625)scale(0.7)" xlink:href="#DejaVuSans-49"/>
      </g>
     </g>
    </g>
    <g id="ytick_32">
     <g id="line2d_69">
      <g>
       <use style="stroke:#000000;stroke-width:0.6;" x="57.6" xlink:href="#m2393d8d5b5" y="307.175111"/>
      </g>
     </g>
    </g>
    <g id="ytick_33">
     <g id="line2d_70">
      <g>
       <use style="stroke:#000000;stroke-width:0.6;" x="57.6" xlink:href="#m2393d8d5b5" y="304.744866"/>
      </g>
     </g>
    </g>
    <g id="ytick_34">
     <g id="line2d_71">
      <g>
       <use style="stroke:#000000;stroke-width:0.6;" x="57.6" xlink:href="#m2393d8d5b5" y="302.639693"/>
      </g>
     </g>
    </g>
    <g id="ytick_35">
     <g id="line2d_72">
      <g>
       <use style="stroke:#000000;stroke-width:0.6;" x="57.6" xlink:href="#m2393d8d5b5" y="300.782798"/>
      </g>
     </g>
    </g>
    <g id="ytick_36">
     <g id="line2d_73">
      <g>
       <use style="stroke:#000000;stroke-width:0.6;" x="57.6" xlink:href="#m2393d8d5b5" y="288.194019"/>
      </g>
     </g>
    </g>
    <g id="ytick_37">
     <g id="line2d_74">
      <g>
       <use style="stroke:#000000;stroke-width:0.6;" x="57.6" xlink:href="#m2393d8d5b5" y="281.801706"/>
      </g>
     </g>
    </g>
    <g id="ytick_38">
     <g id="line2d_75">
      <g>
       <use style="stroke:#000000;stroke-width:0.6;" x="57.6" xlink:href="#m2393d8d5b5" y="277.266288"/>
      </g>
     </g>
    </g>
    <g id="ytick_39">
     <g id="line2d_76">
      <g>
       <use style="stroke:#000000;stroke-width:0.6;" x="57.6" xlink:href="#m2393d8d5b5" y="273.748345"/>
      </g>
     </g>
    </g>
    <g id="ytick_40">
     <g id="line2d_77">
      <g>
       <use style="stroke:#000000;stroke-width:0.6;" x="57.6" xlink:href="#m2393d8d5b5" y="270.873976"/>
      </g>
     </g>
    </g>
    <g id="ytick_41">
     <g id="line2d_78">
      <g>
       <use style="stroke:#000000;stroke-width:0.6;" x="57.6" xlink:href="#m2393d8d5b5" y="268.443731"/>
      </g>
     </g>
    </g>
    <g id="ytick_42">
     <g id="line2d_79">
      <g>
       <use style="stroke:#000000;stroke-width:0.6;" x="57.6" xlink:href="#m2393d8d5b5" y="266.338558"/>
      </g>
     </g>
    </g>
    <g id="ytick_43">
     <g id="line2d_80">
      <g>
       <use style="stroke:#000000;stroke-width:0.6;" x="57.6" xlink:href="#m2393d8d5b5" y="264.481663"/>
      </g>
     </g>
    </g>
    <g id="ytick_44">
     <g id="line2d_81">
      <g>
       <use style="stroke:#000000;stroke-width:0.6;" x="57.6" xlink:href="#m2393d8d5b5" y="251.892884"/>
      </g>
     </g>
    </g>
    <g id="ytick_45">
     <g id="line2d_82">
      <g>
       <use style="stroke:#000000;stroke-width:0.6;" x="57.6" xlink:href="#m2393d8d5b5" y="245.500571"/>
      </g>
     </g>
    </g>
    <g id="ytick_46">
     <g id="line2d_83">
      <g>
       <use style="stroke:#000000;stroke-width:0.6;" x="57.6" xlink:href="#m2393d8d5b5" y="240.965153"/>
      </g>
     </g>
    </g>
    <g id="ytick_47">
     <g id="line2d_84">
      <g>
       <use style="stroke:#000000;stroke-width:0.6;" x="57.6" xlink:href="#m2393d8d5b5" y="237.44721"/>
      </g>
     </g>
    </g>
    <g id="ytick_48">
     <g id="line2d_85">
      <g>
       <use style="stroke:#000000;stroke-width:0.6;" x="57.6" xlink:href="#m2393d8d5b5" y="234.57284"/>
      </g>
     </g>
    </g>
    <g id="ytick_49">
     <g id="line2d_86">
      <g>
       <use style="stroke:#000000;stroke-width:0.6;" x="57.6" xlink:href="#m2393d8d5b5" y="232.142596"/>
      </g>
     </g>
    </g>
    <g id="ytick_50">
     <g id="line2d_87">
      <g>
       <use style="stroke:#000000;stroke-width:0.6;" x="57.6" xlink:href="#m2393d8d5b5" y="230.037423"/>
      </g>
     </g>
    </g>
    <g id="ytick_51">
     <g id="line2d_88">
      <g>
       <use style="stroke:#000000;stroke-width:0.6;" x="57.6" xlink:href="#m2393d8d5b5" y="228.180528"/>
      </g>
     </g>
    </g>
    <g id="ytick_52">
     <g id="line2d_89">
      <g>
       <use style="stroke:#000000;stroke-width:0.6;" x="57.6" xlink:href="#m2393d8d5b5" y="215.591748"/>
      </g>
     </g>
    </g>
    <g id="ytick_53">
     <g id="line2d_90">
      <g>
       <use style="stroke:#000000;stroke-width:0.6;" x="57.6" xlink:href="#m2393d8d5b5" y="209.199436"/>
      </g>
     </g>
    </g>
    <g id="ytick_54">
     <g id="line2d_91">
      <g>
       <use style="stroke:#000000;stroke-width:0.6;" x="57.6" xlink:href="#m2393d8d5b5" y="204.664018"/>
      </g>
     </g>
    </g>
    <g id="ytick_55">
     <g id="line2d_92">
      <g>
       <use style="stroke:#000000;stroke-width:0.6;" x="57.6" xlink:href="#m2393d8d5b5" y="201.146074"/>
      </g>
     </g>
    </g>
    <g id="ytick_56">
     <g id="line2d_93">
      <g>
       <use style="stroke:#000000;stroke-width:0.6;" x="57.6" xlink:href="#m2393d8d5b5" y="198.271705"/>
      </g>
     </g>
    </g>
    <g id="ytick_57">
     <g id="line2d_94">
      <g>
       <use style="stroke:#000000;stroke-width:0.6;" x="57.6" xlink:href="#m2393d8d5b5" y="195.841461"/>
      </g>
     </g>
    </g>
    <g id="ytick_58">
     <g id="line2d_95">
      <g>
       <use style="stroke:#000000;stroke-width:0.6;" x="57.6" xlink:href="#m2393d8d5b5" y="193.736287"/>
      </g>
     </g>
    </g>
    <g id="ytick_59">
     <g id="line2d_96">
      <g>
       <use style="stroke:#000000;stroke-width:0.6;" x="57.6" xlink:href="#m2393d8d5b5" y="191.879393"/>
      </g>
     </g>
    </g>
   </g>
   <g id="line2d_97">
    <path clip-path="url(#p6697db3b65)" d="M 83.329402 201.45827 
L 103.442457 198.583901 
L 125.693201 204.976214 
L 148.031925 219.421888 
L 169.45447 233.223988 
L 192.299099 222.296257 
L 214.801735 241.277349 
L 236.163793 239.021309 
L 258.077971 235.197232 
L 279.861431 246.581963 
L 301.489395 267.864074 
M 344.849172 275.563142 
M 388.381575 272.399492 
" style="fill:none;stroke:#1f77b4;stroke-linecap:square;stroke-width:1.5;"/>
   </g>
   <g id="line2d_98">
    <path clip-path="url(#p6697db3b65)" d="M 73.832727 192.122182 
L 83.329402 195.171734 
L 91.92019 197.930389 
L 99.762964 200.448844 
L 106.977617 202.765598 
L 113.657343 204.910577 
L 125.693201 208.775507 
L 131.157604 210.530224 
L 136.30958 212.184616 
L 141.182932 213.749536 
L 150.203959 216.646349 
L 169.45447 222.828032 
L 182.352872 226.969939 
L 185.308384 227.919007 
L 188.170054 228.837941 
L 193.634457 230.592658 
L 196.24725 231.431673 
L 201.256041 233.040085 
L 216.873896 238.055257 
L 224.71667 240.573712 
L 230.181073 242.32843 
L 247.785237 247.981441 
L 252.044378 249.349127 
L 253.420512 249.791029 
L 254.775952 250.226284 
L 277.278588 257.452283 
L 282.372318 259.087971 
L 284.331853 259.717212 
L 300.279511 264.83829 
L 337.096397 276.66085 
L 397.111138 295.932656 
L 398.487273 296.374557 
" style="fill:none;stroke:#ff7f0e;stroke-dasharray:1.5,2.475;stroke-dashoffset:0;stroke-width:1.5;"/>
   </g>
   <g id="line2d_99">
    <path clip-path="url(#p6697db3b65)" d="M 73.832727 198.403391 
L 83.329402 200.166703 
L 91.92019 201.827656 
L 99.762964 203.398604 
L 106.977617 204.889774 
L 113.657343 206.309718 
L 125.693201 208.963724 
L 131.157604 210.20921 
L 136.30958 211.406674 
L 141.182932 212.560094 
L 150.203959 214.748333 
L 169.45447 219.648768 
L 182.352872 223.108101 
L 185.308384 223.920644 
L 188.170054 224.714451 
L 193.634457 226.249541 
L 196.24725 226.992495 
L 201.256041 228.432957 
L 216.873896 233.06115 
L 224.71667 235.463362 
L 230.181073 237.16795 
L 247.785237 242.831833 
L 252.044378 244.241675 
L 253.420512 244.700489 
L 254.775952 245.153975 
L 277.278588 252.910521 
L 282.372318 254.725978 
L 284.331853 255.430243 
L 300.279511 261.283139 
L 337.096397 275.619929 
L 397.111138 301.457494 
L 398.487273 302.085818 
" style="fill:none;stroke:#2ca02c;stroke-dasharray:9.6,2.4,1.5,2.4;stroke-dashoffset:0;stroke-width:1.5;"/>
   </g>
   <g id="line2d_100">
    <path clip-path="url(#p6697db3b65)" d="M 73.832727 196.548098 
L 83.329402 198.909643 
L 91.92019 201.053827 
L 99.762964 203.018531 
L 106.977617 204.832521 
L 113.657343 206.51816 
L 125.693201 209.571849 
L 131.157604 210.96588 
L 136.30958 212.284945 
L 141.182932 213.537157 
L 150.203959 215.867459 
L 169.45447 220.90091 
L 182.352872 224.327331 
L 185.308384 225.119371 
L 188.170054 225.888894 
L 193.634457 227.365809 
L 196.24725 228.075616 
L 201.256041 229.44321 
L 216.873896 233.770801 
L 224.71667 235.984161 
L 230.181073 237.543962 
L 247.785237 242.679695 
L 252.044378 243.950301 
L 253.420512 244.36338 
L 254.775952 244.771494 
L 277.278588 251.745663 
L 282.372318 253.382294 
L 284.331853 254.018241 
L 300.279511 259.336704 
L 337.096397 272.812232 
L 397.111138 300.30822 
L 398.487273 301.05284 
" style="fill:none;stroke:#d62728;stroke-dasharray:5.55,2.4;stroke-dashoffset:0;stroke-width:1.5;"/>
   </g>
   <g id="patch_9">
    <path d="M 57.6 307.584 
L 57.6 186.624 
" style="fill:none;stroke:#000000;stroke-linecap:square;stroke-linejoin:miter;stroke-width:0.8;"/>
   </g>
   <g id="patch_10">
    <path d="M 414.72 307.584 
L 414.72 186.624 
" style="fill:none;stroke:#000000;stroke-linecap:square;stroke-linejoin:miter;stroke-width:0.8;"/>
   </g>
   <g id="patch_11">
    <path d="M 57.6 307.584 
L 414.72 307.584 
" style="fill:none;stroke:#000000;stroke-linecap:square;stroke-linejoin:miter;stroke-width:0.8;"/>
   </g>
   <g id="patch_12">
    <path d="M 57.6 186.624 
L 414.72 186.624 
" style="fill:none;stroke:#000000;stroke-linecap:square;stroke-linejoin:miter;stroke-width:0.8;"/>
   </g>
   <g id="text_16">
    <!-- atom -->
    <g transform="translate(220.615312 180.624)scale(0.12 -0.12)">
     <use xlink:href="#DejaVuSans-97"/>
     <use x="61.279297" xlink:href="#DejaVuSans-116"/>
     <use x="100.488281" xlink:href="#DejaVuSans-111"/>
     <use x="161.669922" xlink:href="#DejaVuSans-109"/>
    </g>
   </g>
   <g id="legend_2">
    <g id="patch_13">
     <path d="M 298.739063 226.6515 
L 410.52 226.6515 
Q 411.72 226.6515 411.72 225.4515 
L 411.72 190.824 
Q 411.72 189.624 410.52 189.624 
L 298.739063 189.624 
Q 297.539063 189.624 297.539063 190.824 
L 297.539063 225.4515 
Q 297.539063 226.6515 298.739063 226.6515 
z
" style="fill:#ffffff;opacity:0.8;stroke:#cccccc;stroke-linejoin:miter;"/>
    </g>
    <g id="line2d_101">
     <path d="M 299.939063 194.483062 
L 311.939063 194.483062 
" style="fill:none;stroke:#1f77b4;stroke-linecap:square;stroke-width:1.5;"/>
    </g>
    <g id="line2d_102"/>
    <g id="text_17">
     <!--  2019 Data as PDF -->
     <defs>
      <path d="M 10.984375 1.515625 
L 10.984375 10.5 
Q 14.703125 8.734375 18.5 7.8125 
Q 22.3125 6.890625 25.984375 6.890625 
Q 35.75 6.890625 40.890625 13.453125 
Q 46.046875 20.015625 46.78125 33.40625 
Q 43.953125 29.203125 39.59375 26.953125 
Q 35.25 24.703125 29.984375 24.703125 
Q 19.046875 24.703125 12.671875 31.3125 
Q 6.296875 37.9375 6.296875 49.421875 
Q 6.296875 60.640625 12.9375 67.421875 
Q 19.578125 74.21875 30.609375 74.21875 
Q 43.265625 74.21875 49.921875 64.515625 
Q 56.59375 54.828125 56.59375 36.375 
Q 56.59375 19.140625 48.40625 8.859375 
Q 40.234375 -1.421875 26.421875 -1.421875 
Q 22.703125 -1.421875 18.890625 -0.6875 
Q 15.09375 0.046875 10.984375 1.515625 
z
M 30.609375 32.421875 
Q 37.25 32.421875 41.125 36.953125 
Q 45.015625 41.5 45.015625 49.421875 
Q 45.015625 57.28125 41.125 61.84375 
Q 37.25 66.40625 30.609375 66.40625 
Q 23.96875 66.40625 20.09375 61.84375 
Q 16.21875 57.28125 16.21875 49.421875 
Q 16.21875 41.5 20.09375 36.953125 
Q 23.96875 32.421875 30.609375 32.421875 
z
" id="DejaVuSans-57"/>
     </defs>
     <g transform="translate(316.739063 196.583062)scale(0.06 -0.06)">
      <use xlink:href="#DejaVuSans-32"/>
      <use x="31.787109" xlink:href="#DejaVuSans-50"/>
      <use x="95.410156" xlink:href="#DejaVuSans-48"/>
      <use x="159.033203" xlink:href="#DejaVuSans-49"/>
      <use x="222.65625" xlink:href="#DejaVuSans-57"/>
      <use x="286.279297" xlink:href="#DejaVuSans-32"/>
      <use x="318.066406" xlink:href="#DejaVuSans-68"/>
      <use x="395.068359" xlink:href="#DejaVuSans-97"/>
      <use x="456.347656" xlink:href="#DejaVuSans-116"/>
      <use x="495.556641" xlink:href="#DejaVuSans-97"/>
      <use x="556.835938" xlink:href="#DejaVuSans-32"/>
      <use x="588.623047" xlink:href="#DejaVuSans-97"/>
      <use x="649.902344" xlink:href="#DejaVuSans-115"/>
      <use x="702.001953" xlink:href="#DejaVuSans-32"/>
      <use x="733.789062" xlink:href="#DejaVuSans-80"/>
      <use x="794.091797" xlink:href="#DejaVuSans-68"/>
      <use x="871.09375" xlink:href="#DejaVuSans-70"/>
     </g>
    </g>
    <g id="line2d_103">
     <path d="M 299.939063 203.289937 
L 311.939063 203.289937 
" style="fill:none;stroke:#ff7f0e;stroke-dasharray:1.5,2.475;stroke-dashoffset:0;stroke-width:1.5;"/>
    </g>
    <g id="line2d_104"/>
    <g id="text_18">
     <!-- Fitted Powerlaw PDF -->
     <g transform="translate(316.739063 205.389937)scale(0.06 -0.06)">
      <use xlink:href="#DejaVuSans-70"/>
      <use x="57.410156" xlink:href="#DejaVuSans-105"/>
      <use x="85.193359" xlink:href="#DejaVuSans-116"/>
      <use x="124.402344" xlink:href="#DejaVuSans-116"/>
      <use x="163.611328" xlink:href="#DejaVuSans-101"/>
      <use x="225.134766" xlink:href="#DejaVuSans-100"/>
      <use x="288.611328" xlink:href="#DejaVuSans-32"/>
      <use x="320.398438" xlink:href="#DejaVuSans-80"/>
      <use x="380.654297" xlink:href="#DejaVuSans-111"/>
      <use x="441.835938" xlink:href="#DejaVuSans-119"/>
      <use x="523.623047" xlink:href="#DejaVuSans-101"/>
      <use x="585.146484" xlink:href="#DejaVuSans-114"/>
      <use x="626.259766" xlink:href="#DejaVuSans-108"/>
      <use x="654.042969" xlink:href="#DejaVuSans-97"/>
      <use x="715.322266" xlink:href="#DejaVuSans-119"/>
      <use x="797.109375" xlink:href="#DejaVuSans-32"/>
      <use x="828.896484" xlink:href="#DejaVuSans-80"/>
      <use x="889.199219" xlink:href="#DejaVuSans-68"/>
      <use x="966.201172" xlink:href="#DejaVuSans-70"/>
     </g>
    </g>
    <g id="line2d_105">
     <path d="M 299.939063 212.096812 
L 311.939063 212.096812 
" style="fill:none;stroke:#2ca02c;stroke-dasharray:9.6,2.4,1.5,2.4;stroke-dashoffset:0;stroke-width:1.5;"/>
    </g>
    <g id="line2d_106"/>
    <g id="text_19">
     <!-- Fitted Lognormal PDF -->
     <g transform="translate(316.739063 214.196812)scale(0.06 -0.06)">
      <use xlink:href="#DejaVuSans-70"/>
      <use x="57.410156" xlink:href="#DejaVuSans-105"/>
      <use x="85.193359" xlink:href="#DejaVuSans-116"/>
      <use x="124.402344" xlink:href="#DejaVuSans-116"/>
      <use x="163.611328" xlink:href="#DejaVuSans-101"/>
      <use x="225.134766" xlink:href="#DejaVuSans-100"/>
      <use x="288.611328" xlink:href="#DejaVuSans-32"/>
      <use x="320.398438" xlink:href="#DejaVuSans-76"/>
      <use x="376.095703" xlink:href="#DejaVuSans-111"/>
      <use x="437.277344" xlink:href="#DejaVuSans-103"/>
      <use x="500.753906" xlink:href="#DejaVuSans-110"/>
      <use x="564.132812" xlink:href="#DejaVuSans-111"/>
      <use x="625.314453" xlink:href="#DejaVuSans-114"/>
      <use x="666.412109" xlink:href="#DejaVuSans-109"/>
      <use x="763.824219" xlink:href="#DejaVuSans-97"/>
      <use x="825.103516" xlink:href="#DejaVuSans-108"/>
      <use x="852.886719" xlink:href="#DejaVuSans-32"/>
      <use x="884.673828" xlink:href="#DejaVuSans-80"/>
      <use x="944.976562" xlink:href="#DejaVuSans-68"/>
      <use x="1021.978516" xlink:href="#DejaVuSans-70"/>
     </g>
    </g>
    <g id="line2d_107">
     <path d="M 299.939063 220.903687 
L 311.939063 220.903687 
" style="fill:none;stroke:#d62728;stroke-dasharray:5.55,2.4;stroke-dashoffset:0;stroke-width:1.5;"/>
    </g>
    <g id="line2d_108"/>
    <g id="text_20">
     <!-- Fitted truncated Powerlaw PDF -->
     <g transform="translate(316.739063 223.003687)scale(0.06 -0.06)">
      <use xlink:href="#DejaVuSans-70"/>
      <use x="57.410156" xlink:href="#DejaVuSans-105"/>
      <use x="85.193359" xlink:href="#DejaVuSans-116"/>
      <use x="124.402344" xlink:href="#DejaVuSans-116"/>
      <use x="163.611328" xlink:href="#DejaVuSans-101"/>
      <use x="225.134766" xlink:href="#DejaVuSans-100"/>
      <use x="288.611328" xlink:href="#DejaVuSans-32"/>
      <use x="320.398438" xlink:href="#DejaVuSans-116"/>
      <use x="359.607422" xlink:href="#DejaVuSans-114"/>
      <use x="400.720703" xlink:href="#DejaVuSans-117"/>
      <use x="464.099609" xlink:href="#DejaVuSans-110"/>
      <use x="527.478516" xlink:href="#DejaVuSans-99"/>
      <use x="582.458984" xlink:href="#DejaVuSans-97"/>
      <use x="643.738281" xlink:href="#DejaVuSans-116"/>
      <use x="682.947266" xlink:href="#DejaVuSans-101"/>
      <use x="744.470703" xlink:href="#DejaVuSans-100"/>
      <use x="807.947266" xlink:href="#DejaVuSans-32"/>
      <use x="839.734375" xlink:href="#DejaVuSans-80"/>
      <use x="899.990234" xlink:href="#DejaVuSans-111"/>
      <use x="961.171875" xlink:href="#DejaVuSans-119"/>
      <use x="1042.958984" xlink:href="#DejaVuSans-101"/>
      <use x="1104.482422" xlink:href="#DejaVuSans-114"/>
      <use x="1145.595703" xlink:href="#DejaVuSans-108"/>
      <use x="1173.378906" xlink:href="#DejaVuSans-97"/>
      <use x="1234.658203" xlink:href="#DejaVuSans-119"/>
      <use x="1316.445312" xlink:href="#DejaVuSans-32"/>
      <use x="1348.232422" xlink:href="#DejaVuSans-80"/>
      <use x="1408.535156" xlink:href="#DejaVuSans-68"/>
      <use x="1485.537109" xlink:href="#DejaVuSans-70"/>
     </g>
    </g>
   </g>
  </g>
 </g>
 <defs>
  <clipPath id="p5fd4f48fc2">
   <rect height="120.96" width="357.12" x="57.6" y="41.472"/>
  </clipPath>
  <clipPath id="p6697db3b65">
   <rect height="120.96" width="357.12" x="57.6" y="186.624"/>
  </clipPath>
 </defs>
</svg>
