<?xml version="1.0" encoding="utf-8" standalone="no"?>
<!DOCTYPE svg PUBLIC "-//W3C//DTD SVG 1.1//EN"
  "http://www.w3.org/Graphics/SVG/1.1/DTD/svg11.dtd">
<!-- Created with matplotlib (https://matplotlib.org/) -->
<svg height="345.6pt" version="1.1" viewBox="0 0 460.8 345.6" width="460.8pt" xmlns="http://www.w3.org/2000/svg" xmlns:xlink="http://www.w3.org/1999/xlink">
 <defs>
  <style type="text/css">
*{stroke-linecap:butt;stroke-linejoin:round;}
  </style>
 </defs>
 <g id="figure_1">
  <g id="patch_1">
   <path d="M 0 345.6 
L 460.8 345.6 
L 460.8 0 
L 0 0 
z
" style="fill:#ffffff;"/>
  </g>
  <g id="axes_1">
   <g id="patch_2">
    <path d="M 57.6 162.432 
L 414.72 162.432 
L 414.72 41.472 
L 57.6 41.472 
z
" style="fill:#ffffff;"/>
   </g>
   <g id="matplotlib.axis_1">
    <g id="xtick_1">
     <g id="line2d_1">
      <defs>
       <path d="M 0 0 
L 0 3.5 
" id="m61eb44ddba" style="stroke:#000000;stroke-width:0.8;"/>
      </defs>
      <g>
       <use style="stroke:#000000;stroke-width:0.8;" x="85.630499" xlink:href="#m61eb44ddba" y="162.432"/>
      </g>
     </g>
     <g id="text_1">
      <!-- $\mathdefault{10^{2}}$ -->
      <defs>
       <path d="M 12.40625 8.296875 
L 28.515625 8.296875 
L 28.515625 63.921875 
L 10.984375 60.40625 
L 10.984375 69.390625 
L 28.421875 72.90625 
L 38.28125 72.90625 
L 38.28125 8.296875 
L 54.390625 8.296875 
L 54.390625 0 
L 12.40625 0 
z
" id="DejaVuSans-49"/>
       <path d="M 31.78125 66.40625 
Q 24.171875 66.40625 20.328125 58.90625 
Q 16.5 51.421875 16.5 36.375 
Q 16.5 21.390625 20.328125 13.890625 
Q 24.171875 6.390625 31.78125 6.390625 
Q 39.453125 6.390625 43.28125 13.890625 
Q 47.125 21.390625 47.125 36.375 
Q 47.125 51.421875 43.28125 58.90625 
Q 39.453125 66.40625 31.78125 66.40625 
z
M 31.78125 74.21875 
Q 44.046875 74.21875 50.515625 64.515625 
Q 56.984375 54.828125 56.984375 36.375 
Q 56.984375 17.96875 50.515625 8.265625 
Q 44.046875 -1.421875 31.78125 -1.421875 
Q 19.53125 -1.421875 13.0625 8.265625 
Q 6.59375 17.96875 6.59375 36.375 
Q 6.59375 54.828125 13.0625 64.515625 
Q 19.53125 74.21875 31.78125 74.21875 
z
" id="DejaVuSans-48"/>
       <path d="M 19.1875 8.296875 
L 53.609375 8.296875 
L 53.609375 0 
L 7.328125 0 
L 7.328125 8.296875 
Q 12.9375 14.109375 22.625 23.890625 
Q 32.328125 33.6875 34.8125 36.53125 
Q 39.546875 41.84375 41.421875 45.53125 
Q 43.3125 49.21875 43.3125 52.78125 
Q 43.3125 58.59375 39.234375 62.25 
Q 35.15625 65.921875 28.609375 65.921875 
Q 23.96875 65.921875 18.8125 64.3125 
Q 13.671875 62.703125 7.8125 59.421875 
L 7.8125 69.390625 
Q 13.765625 71.78125 18.9375 73 
Q 24.125 74.21875 28.421875 74.21875 
Q 39.75 74.21875 46.484375 68.546875 
Q 53.21875 62.890625 53.21875 53.421875 
Q 53.21875 48.921875 51.53125 44.890625 
Q 49.859375 40.875 45.40625 35.40625 
Q 44.1875 33.984375 37.640625 27.21875 
Q 31.109375 20.453125 19.1875 8.296875 
z
" id="DejaVuSans-50"/>
      </defs>
      <g transform="translate(76.830499 177.030437)scale(0.1 -0.1)">
       <use transform="translate(0 0.765625)" xlink:href="#DejaVuSans-49"/>
       <use transform="translate(63.623047 0.765625)" xlink:href="#DejaVuSans-48"/>
       <use transform="translate(128.203125 39.046875)scale(0.7)" xlink:href="#DejaVuSans-50"/>
      </g>
     </g>
    </g>
    <g id="xtick_2">
     <g id="line2d_2">
      <g>
       <use style="stroke:#000000;stroke-width:0.8;" x="252.782554" xlink:href="#m61eb44ddba" y="162.432"/>
      </g>
     </g>
     <g id="text_2">
      <!-- $\mathdefault{10^{3}}$ -->
      <defs>
       <path d="M 40.578125 39.3125 
Q 47.65625 37.796875 51.625 33 
Q 55.609375 28.21875 55.609375 21.1875 
Q 55.609375 10.40625 48.1875 4.484375 
Q 40.765625 -1.421875 27.09375 -1.421875 
Q 22.515625 -1.421875 17.65625 -0.515625 
Q 12.796875 0.390625 7.625 2.203125 
L 7.625 11.71875 
Q 11.71875 9.328125 16.59375 8.109375 
Q 21.484375 6.890625 26.8125 6.890625 
Q 36.078125 6.890625 40.9375 10.546875 
Q 45.796875 14.203125 45.796875 21.1875 
Q 45.796875 27.640625 41.28125 31.265625 
Q 36.765625 34.90625 28.71875 34.90625 
L 20.21875 34.90625 
L 20.21875 43.015625 
L 29.109375 43.015625 
Q 36.375 43.015625 40.234375 45.921875 
Q 44.09375 48.828125 44.09375 54.296875 
Q 44.09375 59.90625 40.109375 62.90625 
Q 36.140625 65.921875 28.71875 65.921875 
Q 24.65625 65.921875 20.015625 65.03125 
Q 15.375 64.15625 9.8125 62.3125 
L 9.8125 71.09375 
Q 15.4375 72.65625 20.34375 73.4375 
Q 25.25 74.21875 29.59375 74.21875 
Q 40.828125 74.21875 47.359375 69.109375 
Q 53.90625 64.015625 53.90625 55.328125 
Q 53.90625 49.265625 50.4375 45.09375 
Q 46.96875 40.921875 40.578125 39.3125 
z
" id="DejaVuSans-51"/>
      </defs>
      <g transform="translate(243.982554 177.030437)scale(0.1 -0.1)">
       <use transform="translate(0 0.765625)" xlink:href="#DejaVuSans-49"/>
       <use transform="translate(63.623047 0.765625)" xlink:href="#DejaVuSans-48"/>
       <use transform="translate(128.203125 39.046875)scale(0.7)" xlink:href="#DejaVuSans-51"/>
      </g>
     </g>
    </g>
    <g id="xtick_3">
     <g id="line2d_3">
      <defs>
       <path d="M 0 0 
L 0 2 
" id="mb8f25af588" style="stroke:#000000;stroke-width:0.6;"/>
      </defs>
      <g>
       <use style="stroke:#000000;stroke-width:0.6;" x="59.738318" xlink:href="#mb8f25af588" y="162.432"/>
      </g>
     </g>
    </g>
    <g id="xtick_4">
     <g id="line2d_4">
      <g>
       <use style="stroke:#000000;stroke-width:0.6;" x="69.431791" xlink:href="#mb8f25af588" y="162.432"/>
      </g>
     </g>
    </g>
    <g id="xtick_5">
     <g id="line2d_5">
      <g>
       <use style="stroke:#000000;stroke-width:0.6;" x="77.98204" xlink:href="#mb8f25af588" y="162.432"/>
      </g>
     </g>
    </g>
    <g id="xtick_6">
     <g id="line2d_6">
      <g>
       <use style="stroke:#000000;stroke-width:0.6;" x="135.948281" xlink:href="#mb8f25af588" y="162.432"/>
      </g>
     </g>
    </g>
    <g id="xtick_7">
     <g id="line2d_7">
      <g>
       <use style="stroke:#000000;stroke-width:0.6;" x="165.382297" xlink:href="#mb8f25af588" y="162.432"/>
      </g>
     </g>
    </g>
    <g id="xtick_8">
     <g id="line2d_8">
      <g>
       <use style="stroke:#000000;stroke-width:0.6;" x="186.266064" xlink:href="#mb8f25af588" y="162.432"/>
      </g>
     </g>
    </g>
    <g id="xtick_9">
     <g id="line2d_9">
      <g>
       <use style="stroke:#000000;stroke-width:0.6;" x="202.464771" xlink:href="#mb8f25af588" y="162.432"/>
      </g>
     </g>
    </g>
    <g id="xtick_10">
     <g id="line2d_10">
      <g>
       <use style="stroke:#000000;stroke-width:0.6;" x="215.700079" xlink:href="#mb8f25af588" y="162.432"/>
      </g>
     </g>
    </g>
    <g id="xtick_11">
     <g id="line2d_11">
      <g>
       <use style="stroke:#000000;stroke-width:0.6;" x="226.890373" xlink:href="#mb8f25af588" y="162.432"/>
      </g>
     </g>
    </g>
    <g id="xtick_12">
     <g id="line2d_12">
      <g>
       <use style="stroke:#000000;stroke-width:0.6;" x="236.583846" xlink:href="#mb8f25af588" y="162.432"/>
      </g>
     </g>
    </g>
    <g id="xtick_13">
     <g id="line2d_13">
      <g>
       <use style="stroke:#000000;stroke-width:0.6;" x="245.134095" xlink:href="#mb8f25af588" y="162.432"/>
      </g>
     </g>
    </g>
    <g id="xtick_14">
     <g id="line2d_14">
      <g>
       <use style="stroke:#000000;stroke-width:0.6;" x="303.100336" xlink:href="#mb8f25af588" y="162.432"/>
      </g>
     </g>
    </g>
    <g id="xtick_15">
     <g id="line2d_15">
      <g>
       <use style="stroke:#000000;stroke-width:0.6;" x="332.534352" xlink:href="#mb8f25af588" y="162.432"/>
      </g>
     </g>
    </g>
    <g id="xtick_16">
     <g id="line2d_16">
      <g>
       <use style="stroke:#000000;stroke-width:0.6;" x="353.418119" xlink:href="#mb8f25af588" y="162.432"/>
      </g>
     </g>
    </g>
    <g id="xtick_17">
     <g id="line2d_17">
      <g>
       <use style="stroke:#000000;stroke-width:0.6;" x="369.616826" xlink:href="#mb8f25af588" y="162.432"/>
      </g>
     </g>
    </g>
    <g id="xtick_18">
     <g id="line2d_18">
      <g>
       <use style="stroke:#000000;stroke-width:0.6;" x="382.852134" xlink:href="#mb8f25af588" y="162.432"/>
      </g>
     </g>
    </g>
    <g id="xtick_19">
     <g id="line2d_19">
      <g>
       <use style="stroke:#000000;stroke-width:0.6;" x="394.042428" xlink:href="#mb8f25af588" y="162.432"/>
      </g>
     </g>
    </g>
    <g id="xtick_20">
     <g id="line2d_20">
      <g>
       <use style="stroke:#000000;stroke-width:0.6;" x="403.735901" xlink:href="#mb8f25af588" y="162.432"/>
      </g>
     </g>
    </g>
    <g id="xtick_21">
     <g id="line2d_21">
      <g>
       <use style="stroke:#000000;stroke-width:0.6;" x="412.28615" xlink:href="#mb8f25af588" y="162.432"/>
      </g>
     </g>
    </g>
   </g>
   <g id="matplotlib.axis_2">
    <g id="ytick_1">
     <g id="line2d_22">
      <defs>
       <path d="M 0 0 
L -3.5 0 
" id="m8222b84d2e" style="stroke:#000000;stroke-width:0.8;"/>
      </defs>
      <g>
       <use style="stroke:#000000;stroke-width:0.8;" x="57.6" xlink:href="#m8222b84d2e" y="140.907274"/>
      </g>
     </g>
     <g id="text_3">
      <!-- $\mathdefault{10^{-6}}$ -->
      <defs>
       <path d="M 10.59375 35.5 
L 73.1875 35.5 
L 73.1875 27.203125 
L 10.59375 27.203125 
z
" id="DejaVuSans-8722"/>
       <path d="M 33.015625 40.375 
Q 26.375 40.375 22.484375 35.828125 
Q 18.609375 31.296875 18.609375 23.390625 
Q 18.609375 15.53125 22.484375 10.953125 
Q 26.375 6.390625 33.015625 6.390625 
Q 39.65625 6.390625 43.53125 10.953125 
Q 47.40625 15.53125 47.40625 23.390625 
Q 47.40625 31.296875 43.53125 35.828125 
Q 39.65625 40.375 33.015625 40.375 
z
M 52.59375 71.296875 
L 52.59375 62.3125 
Q 48.875 64.0625 45.09375 64.984375 
Q 41.3125 65.921875 37.59375 65.921875 
Q 27.828125 65.921875 22.671875 59.328125 
Q 17.53125 52.734375 16.796875 39.40625 
Q 19.671875 43.65625 24.015625 45.921875 
Q 28.375 48.1875 33.59375 48.1875 
Q 44.578125 48.1875 50.953125 41.515625 
Q 57.328125 34.859375 57.328125 23.390625 
Q 57.328125 12.15625 50.6875 5.359375 
Q 44.046875 -1.421875 33.015625 -1.421875 
Q 20.359375 -1.421875 13.671875 8.265625 
Q 6.984375 17.96875 6.984375 36.375 
Q 6.984375 53.65625 15.1875 63.9375 
Q 23.390625 74.21875 37.203125 74.21875 
Q 40.921875 74.21875 44.703125 73.484375 
Q 48.484375 72.75 52.59375 71.296875 
z
" id="DejaVuSans-54"/>
      </defs>
      <g transform="translate(27.1 144.706492)scale(0.1 -0.1)">
       <use transform="translate(0 0.765625)" xlink:href="#DejaVuSans-49"/>
       <use transform="translate(63.623047 0.765625)" xlink:href="#DejaVuSans-48"/>
       <use transform="translate(128.203125 39.046875)scale(0.7)" xlink:href="#DejaVuSans-8722"/>
       <use transform="translate(186.855469 39.046875)scale(0.7)" xlink:href="#DejaVuSans-54"/>
      </g>
     </g>
    </g>
    <g id="ytick_2">
     <g id="line2d_23">
      <g>
       <use style="stroke:#000000;stroke-width:0.8;" x="57.6" xlink:href="#m8222b84d2e" y="118.867377"/>
      </g>
     </g>
     <g id="text_4">
      <!-- $\mathdefault{10^{-5}}$ -->
      <defs>
       <path d="M 10.796875 72.90625 
L 49.515625 72.90625 
L 49.515625 64.59375 
L 19.828125 64.59375 
L 19.828125 46.734375 
Q 21.96875 47.46875 24.109375 47.828125 
Q 26.265625 48.1875 28.421875 48.1875 
Q 40.625 48.1875 47.75 41.5 
Q 54.890625 34.8125 54.890625 23.390625 
Q 54.890625 11.625 47.5625 5.09375 
Q 40.234375 -1.421875 26.90625 -1.421875 
Q 22.3125 -1.421875 17.546875 -0.640625 
Q 12.796875 0.140625 7.71875 1.703125 
L 7.71875 11.625 
Q 12.109375 9.234375 16.796875 8.0625 
Q 21.484375 6.890625 26.703125 6.890625 
Q 35.15625 6.890625 40.078125 11.328125 
Q 45.015625 15.765625 45.015625 23.390625 
Q 45.015625 31 40.078125 35.4375 
Q 35.15625 39.890625 26.703125 39.890625 
Q 22.75 39.890625 18.8125 39.015625 
Q 14.890625 38.140625 10.796875 36.28125 
z
" id="DejaVuSans-53"/>
      </defs>
      <g transform="translate(27.1 122.666595)scale(0.1 -0.1)">
       <use transform="translate(0 0.684375)" xlink:href="#DejaVuSans-49"/>
       <use transform="translate(63.623047 0.684375)" xlink:href="#DejaVuSans-48"/>
       <use transform="translate(128.203125 38.965625)scale(0.7)" xlink:href="#DejaVuSans-8722"/>
       <use transform="translate(186.855469 38.965625)scale(0.7)" xlink:href="#DejaVuSans-53"/>
      </g>
     </g>
    </g>
    <g id="ytick_3">
     <g id="line2d_24">
      <g>
       <use style="stroke:#000000;stroke-width:0.8;" x="57.6" xlink:href="#m8222b84d2e" y="96.827479"/>
      </g>
     </g>
     <g id="text_5">
      <!-- $\mathdefault{10^{-4}}$ -->
      <defs>
       <path d="M 37.796875 64.3125 
L 12.890625 25.390625 
L 37.796875 25.390625 
z
M 35.203125 72.90625 
L 47.609375 72.90625 
L 47.609375 25.390625 
L 58.015625 25.390625 
L 58.015625 17.1875 
L 47.609375 17.1875 
L 47.609375 0 
L 37.796875 0 
L 37.796875 17.1875 
L 4.890625 17.1875 
L 4.890625 26.703125 
z
" id="DejaVuSans-52"/>
      </defs>
      <g transform="translate(27.1 100.626698)scale(0.1 -0.1)">
       <use transform="translate(0 0.684375)" xlink:href="#DejaVuSans-49"/>
       <use transform="translate(63.623047 0.684375)" xlink:href="#DejaVuSans-48"/>
       <use transform="translate(128.203125 38.965625)scale(0.7)" xlink:href="#DejaVuSans-8722"/>
       <use transform="translate(186.855469 38.965625)scale(0.7)" xlink:href="#DejaVuSans-52"/>
      </g>
     </g>
    </g>
    <g id="ytick_4">
     <g id="line2d_25">
      <g>
       <use style="stroke:#000000;stroke-width:0.8;" x="57.6" xlink:href="#m8222b84d2e" y="74.787582"/>
      </g>
     </g>
     <g id="text_6">
      <!-- $\mathdefault{10^{-3}}$ -->
      <g transform="translate(27.1 78.586801)scale(0.1 -0.1)">
       <use transform="translate(0 0.765625)" xlink:href="#DejaVuSans-49"/>
       <use transform="translate(63.623047 0.765625)" xlink:href="#DejaVuSans-48"/>
       <use transform="translate(128.203125 39.046875)scale(0.7)" xlink:href="#DejaVuSans-8722"/>
       <use transform="translate(186.855469 39.046875)scale(0.7)" xlink:href="#DejaVuSans-51"/>
      </g>
     </g>
    </g>
    <g id="ytick_5">
     <g id="line2d_26">
      <g>
       <use style="stroke:#000000;stroke-width:0.8;" x="57.6" xlink:href="#m8222b84d2e" y="52.747685"/>
      </g>
     </g>
     <g id="text_7">
      <!-- $\mathdefault{10^{-2}}$ -->
      <g transform="translate(27.1 56.546904)scale(0.1 -0.1)">
       <use transform="translate(0 0.765625)" xlink:href="#DejaVuSans-49"/>
       <use transform="translate(63.623047 0.765625)" xlink:href="#DejaVuSans-48"/>
       <use transform="translate(128.203125 39.046875)scale(0.7)" xlink:href="#DejaVuSans-8722"/>
       <use transform="translate(186.855469 39.046875)scale(0.7)" xlink:href="#DejaVuSans-50"/>
      </g>
     </g>
    </g>
    <g id="ytick_6">
     <g id="line2d_27">
      <defs>
       <path d="M 0 0 
L -2 0 
" id="mdf552a7e9f" style="stroke:#000000;stroke-width:0.6;"/>
      </defs>
      <g>
       <use style="stroke:#000000;stroke-width:0.6;" x="57.6" xlink:href="#mdf552a7e9f" y="156.312501"/>
      </g>
     </g>
    </g>
    <g id="ytick_7">
     <g id="line2d_28">
      <g>
       <use style="stroke:#000000;stroke-width:0.6;" x="57.6" xlink:href="#mdf552a7e9f" y="152.431467"/>
      </g>
     </g>
    </g>
    <g id="ytick_8">
     <g id="line2d_29">
      <g>
       <use style="stroke:#000000;stroke-width:0.6;" x="57.6" xlink:href="#mdf552a7e9f" y="149.67783"/>
      </g>
     </g>
    </g>
    <g id="ytick_9">
     <g id="line2d_30">
      <g>
       <use style="stroke:#000000;stroke-width:0.6;" x="57.6" xlink:href="#mdf552a7e9f" y="147.541944"/>
      </g>
     </g>
    </g>
    <g id="ytick_10">
     <g id="line2d_31">
      <g>
       <use style="stroke:#000000;stroke-width:0.6;" x="57.6" xlink:href="#mdf552a7e9f" y="145.796797"/>
      </g>
     </g>
    </g>
    <g id="ytick_11">
     <g id="line2d_32">
      <g>
       <use style="stroke:#000000;stroke-width:0.6;" x="57.6" xlink:href="#mdf552a7e9f" y="144.321297"/>
      </g>
     </g>
    </g>
    <g id="ytick_12">
     <g id="line2d_33">
      <g>
       <use style="stroke:#000000;stroke-width:0.6;" x="57.6" xlink:href="#mdf552a7e9f" y="143.04316"/>
      </g>
     </g>
    </g>
    <g id="ytick_13">
     <g id="line2d_34">
      <g>
       <use style="stroke:#000000;stroke-width:0.6;" x="57.6" xlink:href="#mdf552a7e9f" y="141.915764"/>
      </g>
     </g>
    </g>
    <g id="ytick_14">
     <g id="line2d_35">
      <g>
       <use style="stroke:#000000;stroke-width:0.6;" x="57.6" xlink:href="#mdf552a7e9f" y="134.272604"/>
      </g>
     </g>
    </g>
    <g id="ytick_15">
     <g id="line2d_36">
      <g>
       <use style="stroke:#000000;stroke-width:0.6;" x="57.6" xlink:href="#mdf552a7e9f" y="130.39157"/>
      </g>
     </g>
    </g>
    <g id="ytick_16">
     <g id="line2d_37">
      <g>
       <use style="stroke:#000000;stroke-width:0.6;" x="57.6" xlink:href="#mdf552a7e9f" y="127.637933"/>
      </g>
     </g>
    </g>
    <g id="ytick_17">
     <g id="line2d_38">
      <g>
       <use style="stroke:#000000;stroke-width:0.6;" x="57.6" xlink:href="#mdf552a7e9f" y="125.502047"/>
      </g>
     </g>
    </g>
    <g id="ytick_18">
     <g id="line2d_39">
      <g>
       <use style="stroke:#000000;stroke-width:0.6;" x="57.6" xlink:href="#mdf552a7e9f" y="123.7569"/>
      </g>
     </g>
    </g>
    <g id="ytick_19">
     <g id="line2d_40">
      <g>
       <use style="stroke:#000000;stroke-width:0.6;" x="57.6" xlink:href="#mdf552a7e9f" y="122.2814"/>
      </g>
     </g>
    </g>
    <g id="ytick_20">
     <g id="line2d_41">
      <g>
       <use style="stroke:#000000;stroke-width:0.6;" x="57.6" xlink:href="#mdf552a7e9f" y="121.003263"/>
      </g>
     </g>
    </g>
    <g id="ytick_21">
     <g id="line2d_42">
      <g>
       <use style="stroke:#000000;stroke-width:0.6;" x="57.6" xlink:href="#mdf552a7e9f" y="119.875867"/>
      </g>
     </g>
    </g>
    <g id="ytick_22">
     <g id="line2d_43">
      <g>
       <use style="stroke:#000000;stroke-width:0.6;" x="57.6" xlink:href="#mdf552a7e9f" y="112.232706"/>
      </g>
     </g>
    </g>
    <g id="ytick_23">
     <g id="line2d_44">
      <g>
       <use style="stroke:#000000;stroke-width:0.6;" x="57.6" xlink:href="#mdf552a7e9f" y="108.351673"/>
      </g>
     </g>
    </g>
    <g id="ytick_24">
     <g id="line2d_45">
      <g>
       <use style="stroke:#000000;stroke-width:0.6;" x="57.6" xlink:href="#mdf552a7e9f" y="105.598036"/>
      </g>
     </g>
    </g>
    <g id="ytick_25">
     <g id="line2d_46">
      <g>
       <use style="stroke:#000000;stroke-width:0.6;" x="57.6" xlink:href="#mdf552a7e9f" y="103.46215"/>
      </g>
     </g>
    </g>
    <g id="ytick_26">
     <g id="line2d_47">
      <g>
       <use style="stroke:#000000;stroke-width:0.6;" x="57.6" xlink:href="#mdf552a7e9f" y="101.717003"/>
      </g>
     </g>
    </g>
    <g id="ytick_27">
     <g id="line2d_48">
      <g>
       <use style="stroke:#000000;stroke-width:0.6;" x="57.6" xlink:href="#mdf552a7e9f" y="100.241503"/>
      </g>
     </g>
    </g>
    <g id="ytick_28">
     <g id="line2d_49">
      <g>
       <use style="stroke:#000000;stroke-width:0.6;" x="57.6" xlink:href="#mdf552a7e9f" y="98.963366"/>
      </g>
     </g>
    </g>
    <g id="ytick_29">
     <g id="line2d_50">
      <g>
       <use style="stroke:#000000;stroke-width:0.6;" x="57.6" xlink:href="#mdf552a7e9f" y="97.83597"/>
      </g>
     </g>
    </g>
    <g id="ytick_30">
     <g id="line2d_51">
      <g>
       <use style="stroke:#000000;stroke-width:0.6;" x="57.6" xlink:href="#mdf552a7e9f" y="90.192809"/>
      </g>
     </g>
    </g>
    <g id="ytick_31">
     <g id="line2d_52">
      <g>
       <use style="stroke:#000000;stroke-width:0.6;" x="57.6" xlink:href="#mdf552a7e9f" y="86.311776"/>
      </g>
     </g>
    </g>
    <g id="ytick_32">
     <g id="line2d_53">
      <g>
       <use style="stroke:#000000;stroke-width:0.6;" x="57.6" xlink:href="#mdf552a7e9f" y="83.558139"/>
      </g>
     </g>
    </g>
    <g id="ytick_33">
     <g id="line2d_54">
      <g>
       <use style="stroke:#000000;stroke-width:0.6;" x="57.6" xlink:href="#mdf552a7e9f" y="81.422252"/>
      </g>
     </g>
    </g>
    <g id="ytick_34">
     <g id="line2d_55">
      <g>
       <use style="stroke:#000000;stroke-width:0.6;" x="57.6" xlink:href="#mdf552a7e9f" y="79.677106"/>
      </g>
     </g>
    </g>
    <g id="ytick_35">
     <g id="line2d_56">
      <g>
       <use style="stroke:#000000;stroke-width:0.6;" x="57.6" xlink:href="#mdf552a7e9f" y="78.201606"/>
      </g>
     </g>
    </g>
    <g id="ytick_36">
     <g id="line2d_57">
      <g>
       <use style="stroke:#000000;stroke-width:0.6;" x="57.6" xlink:href="#mdf552a7e9f" y="76.923469"/>
      </g>
     </g>
    </g>
    <g id="ytick_37">
     <g id="line2d_58">
      <g>
       <use style="stroke:#000000;stroke-width:0.6;" x="57.6" xlink:href="#mdf552a7e9f" y="75.796073"/>
      </g>
     </g>
    </g>
    <g id="ytick_38">
     <g id="line2d_59">
      <g>
       <use style="stroke:#000000;stroke-width:0.6;" x="57.6" xlink:href="#mdf552a7e9f" y="68.152912"/>
      </g>
     </g>
    </g>
    <g id="ytick_39">
     <g id="line2d_60">
      <g>
       <use style="stroke:#000000;stroke-width:0.6;" x="57.6" xlink:href="#mdf552a7e9f" y="64.271879"/>
      </g>
     </g>
    </g>
    <g id="ytick_40">
     <g id="line2d_61">
      <g>
       <use style="stroke:#000000;stroke-width:0.6;" x="57.6" xlink:href="#mdf552a7e9f" y="61.518242"/>
      </g>
     </g>
    </g>
    <g id="ytick_41">
     <g id="line2d_62">
      <g>
       <use style="stroke:#000000;stroke-width:0.6;" x="57.6" xlink:href="#mdf552a7e9f" y="59.382355"/>
      </g>
     </g>
    </g>
    <g id="ytick_42">
     <g id="line2d_63">
      <g>
       <use style="stroke:#000000;stroke-width:0.6;" x="57.6" xlink:href="#mdf552a7e9f" y="57.637209"/>
      </g>
     </g>
    </g>
    <g id="ytick_43">
     <g id="line2d_64">
      <g>
       <use style="stroke:#000000;stroke-width:0.6;" x="57.6" xlink:href="#mdf552a7e9f" y="56.161708"/>
      </g>
     </g>
    </g>
    <g id="ytick_44">
     <g id="line2d_65">
      <g>
       <use style="stroke:#000000;stroke-width:0.6;" x="57.6" xlink:href="#mdf552a7e9f" y="54.883572"/>
      </g>
     </g>
    </g>
    <g id="ytick_45">
     <g id="line2d_66">
      <g>
       <use style="stroke:#000000;stroke-width:0.6;" x="57.6" xlink:href="#mdf552a7e9f" y="53.756176"/>
      </g>
     </g>
    </g>
    <g id="ytick_46">
     <g id="line2d_67">
      <g>
       <use style="stroke:#000000;stroke-width:0.6;" x="57.6" xlink:href="#mdf552a7e9f" y="46.113015"/>
      </g>
     </g>
    </g>
    <g id="ytick_47">
     <g id="line2d_68">
      <g>
       <use style="stroke:#000000;stroke-width:0.6;" x="57.6" xlink:href="#mdf552a7e9f" y="42.231982"/>
      </g>
     </g>
    </g>
   </g>
   <g id="line2d_69">
    <path clip-path="url(#p2b3db0bc57)" d="M 82.667099 48.36308 
L 99.767598 58.92013 
L 116.974973 59.711639 
L 133.924005 64.601163 
L 150.976105 73.664971 
L 168.113026 86.382347 
L 185.260981 82.065394 
L 202.392142 87.016473 
L 219.529413 99.846374 
M 304.981327 111.063774 
M 390.444311 122.331844 
" style="fill:none;stroke:#1f77b4;stroke-linecap:square;stroke-width:1.5;"/>
   </g>
   <g id="line2d_70">
    <path clip-path="url(#p2b3db0bc57)" d="M 73.832727 46.970182 
L 75.521018 47.542022 
L 76.350663 47.823031 
L 77.170934 48.100865 
L 78.784183 48.647288 
L 79.57756 48.916012 
L 80.362359 49.181831 
L 81.906954 49.705 
L 82.667099 49.962469 
L 83.419367 50.217269 
L 84.163919 50.469457 
L 84.900913 50.719083 
L 86.352825 51.21086 
L 87.068035 51.453109 
L 87.776267 51.692994 
L 88.477657 51.930561 
L 89.172334 52.165855 
L 89.860426 52.398919 
L 90.542058 52.629794 
L 91.886415 53.085141 
L 92.549371 53.30969 
L 93.206328 53.532208 
L 95.142262 54.187927 
L 97.027906 54.826613 
L 98.258329 55.243369 
L 100.065722 55.855551 
L 100.658323 56.056271 
L 101.246126 56.255365 
L 102.407642 56.648782 
L 104.115796 57.22735 
L 109.011576 58.885598 
L 110.0561 59.239389 
L 110.57278 59.414393 
L 112.603492 60.102215 
L 114.090094 60.605742 
L 116.502051 61.422695 
L 118.375528 62.05726 
L 119.294442 62.368505 
L 120.651364 62.828107 
L 121.098093 62.979419 
L 121.54209 63.129805 
L 121.983387 63.279276 
L 123.291408 63.722316 
L 124.576278 64.157513 
L 127.07974 65.00546 
L 128.702002 65.554936 
L 131.069382 66.356791 
L 131.456547 66.487927 
L 132.224736 66.74812 
L 133.737149 67.260389 
L 135.218695 67.762203 
L 138.445591 68.855184 
L 139.834978 69.325783 
L 140.178209 69.442038 
L 142.867154 70.35281 
L 144.820452 71.014411 
L 147.345688 71.869733 
L 151.856034 73.397431 
L 158.535982 75.659994 
L 165.382297 77.978907 
L 167.292755 78.625998 
L 177.192167 81.979024 
L 178.010127 82.256075 
L 183.491463 84.112657 
L 187.881307 85.599539 
L 202.899029 90.686187 
L 203.043207 90.735022 
L 208.185928 92.476911 
L 219.35705 96.260678 
L 312.898087 127.943933 
L 398.487273 156.933818 
" style="fill:none;stroke:#ff7f0e;stroke-dasharray:1.5,2.475;stroke-dashoffset:0;stroke-width:1.5;"/>
   </g>
   <g id="line2d_71">
    <path clip-path="url(#p2b3db0bc57)" d="M 73.832727 46.981012 
L 75.521018 47.552223 
L 76.350663 47.832926 
L 77.170934 48.110459 
L 78.784183 48.656296 
L 79.57756 48.924734 
L 80.362359 49.190273 
L 81.906954 49.712895 
L 82.667099 49.970096 
L 83.419367 50.224634 
L 84.163919 50.476563 
L 84.900913 50.725936 
L 86.352825 51.217217 
L 87.068035 51.459224 
L 87.776267 51.698871 
L 88.477657 51.936203 
L 89.172334 52.171267 
L 89.860426 52.404103 
L 90.542058 52.634754 
L 91.886415 53.089664 
L 92.549371 53.314 
L 93.206328 53.536307 
L 95.142262 54.191414 
L 97.027906 54.829514 
L 98.258329 55.245893 
L 100.065722 55.857529 
L 100.658323 56.058072 
L 101.246126 56.256993 
L 102.407642 56.650068 
L 104.115796 57.228142 
L 109.011576 58.885022 
L 110.0561 59.23853 
L 110.57278 59.413395 
L 112.603492 60.10068 
L 114.090094 60.603822 
L 116.502051 61.420165 
L 118.375528 62.054268 
L 119.294442 62.36529 
L 120.651364 62.824569 
L 121.098093 62.975775 
L 121.54209 63.126056 
L 121.983387 63.275425 
L 123.291408 63.718163 
L 124.576278 64.153069 
L 127.07974 65.000463 
L 128.702002 65.549591 
L 131.069382 66.350953 
L 131.456547 66.48201 
L 132.224736 66.742048 
L 133.737149 67.254016 
L 135.218695 67.755543 
L 138.445591 68.847921 
L 139.834978 69.31827 
L 140.178209 69.434465 
L 142.867154 70.344773 
L 144.820452 71.006052 
L 147.345688 71.860975 
L 151.856034 73.388009 
L 158.535982 75.649706 
L 165.382297 77.967877 
L 167.292755 78.614787 
L 177.192167 81.96706 
L 178.010127 82.244062 
L 183.491463 84.100373 
L 187.881307 85.587107 
L 202.899029 90.673706 
L 203.043207 90.722544 
L 208.185928 92.464583 
L 219.35705 96.248962 
L 312.898087 127.952842 
L 398.487273 75.999788 
" style="fill:none;stroke:#2ca02c;stroke-dasharray:9.6,2.4,1.5,2.4;stroke-dashoffset:0;stroke-width:1.5;"/>
   </g>
   <g id="line2d_72">
    <path clip-path="url(#p2b3db0bc57)" d="M 73.832727 46.970306 
L 75.521018 47.542141 
L 76.350663 47.823148 
L 77.170934 48.10098 
L 78.784183 48.647398 
L 79.57756 48.91612 
L 80.362359 49.181937 
L 81.906954 49.705102 
L 82.667099 49.962569 
L 83.419367 50.217367 
L 84.163919 50.469552 
L 84.900913 50.719177 
L 86.352825 51.21095 
L 87.068035 51.453197 
L 87.776267 51.69308 
L 88.477657 51.930645 
L 89.172334 52.165937 
L 89.860426 52.398999 
L 90.542058 52.629872 
L 91.886415 53.085215 
L 92.549371 53.309763 
L 93.206328 53.532279 
L 95.142262 54.187993 
L 97.027906 54.826674 
L 98.258329 55.243427 
L 100.065722 55.855604 
L 100.658323 56.056322 
L 101.246126 56.255415 
L 102.407642 56.648828 
L 104.115796 57.227392 
L 109.011576 58.885627 
L 110.0561 59.239415 
L 110.57278 59.414418 
L 112.603492 60.102234 
L 114.090094 60.605757 
L 116.502051 61.422703 
L 118.375528 62.057263 
L 119.294442 62.368505 
L 120.651364 62.828104 
L 121.098093 62.979415 
L 121.54209 63.129799 
L 121.983387 63.27927 
L 123.291408 63.722306 
L 124.576278 64.1575 
L 127.07974 65.00544 
L 128.702002 65.554912 
L 131.069382 66.35676 
L 131.456547 66.487895 
L 132.224736 66.748086 
L 133.737149 67.260351 
L 135.218695 67.762161 
L 138.445591 68.855133 
L 139.834978 69.325728 
L 140.178209 69.441983 
L 142.867154 70.352747 
L 144.820452 71.014343 
L 147.345688 71.869658 
L 151.856034 73.397344 
L 158.535982 75.659889 
L 165.382297 77.978784 
L 167.292755 78.625869 
L 177.192167 81.978869 
L 178.010127 82.255918 
L 183.491463 84.112485 
L 187.881307 85.599355 
L 202.899029 90.685963 
L 203.043207 90.734797 
L 208.185928 92.476672 
L 219.35705 96.26041 
L 312.898087 127.943414 
L 398.487273 156.933079 
" style="fill:none;stroke:#d62728;stroke-dasharray:5.55,2.4;stroke-dashoffset:0;stroke-width:1.5;"/>
   </g>
   <g id="patch_3">
    <path d="M 57.6 162.432 
L 57.6 41.472 
" style="fill:none;stroke:#000000;stroke-linecap:square;stroke-linejoin:miter;stroke-width:0.8;"/>
   </g>
   <g id="patch_4">
    <path d="M 414.72 162.432 
L 414.72 41.472 
" style="fill:none;stroke:#000000;stroke-linecap:square;stroke-linejoin:miter;stroke-width:0.8;"/>
   </g>
   <g id="patch_5">
    <path d="M 57.6 162.432 
L 414.72 162.432 
" style="fill:none;stroke:#000000;stroke-linecap:square;stroke-linejoin:miter;stroke-width:0.8;"/>
   </g>
   <g id="patch_6">
    <path d="M 57.6 41.472 
L 414.72 41.472 
" style="fill:none;stroke:#000000;stroke-linecap:square;stroke-linejoin:miter;stroke-width:0.8;"/>
   </g>
   <g id="legend_1">
    <g id="patch_7">
     <path d="M 61.8 159.432 
L 173.580938 159.432 
Q 174.780937 159.432 174.780937 158.232 
L 174.780937 123.6045 
Q 174.780937 122.4045 173.580938 122.4045 
L 61.8 122.4045 
Q 60.6 122.4045 60.6 123.6045 
L 60.6 158.232 
Q 60.6 159.432 61.8 159.432 
z
" style="fill:#ffffff;opacity:0.8;stroke:#cccccc;stroke-linejoin:miter;"/>
    </g>
    <g id="line2d_73">
     <path d="M 63 127.263563 
L 75 127.263563 
" style="fill:none;stroke:#1f77b4;stroke-linecap:square;stroke-width:1.5;"/>
    </g>
    <g id="line2d_74"/>
    <g id="text_8">
     <!--  2017 Data as PDF -->
     <defs>
      <path id="DejaVuSans-32"/>
      <path d="M 8.203125 72.90625 
L 55.078125 72.90625 
L 55.078125 68.703125 
L 28.609375 0 
L 18.3125 0 
L 43.21875 64.59375 
L 8.203125 64.59375 
z
" id="DejaVuSans-55"/>
      <path d="M 19.671875 64.796875 
L 19.671875 8.109375 
L 31.59375 8.109375 
Q 46.6875 8.109375 53.6875 14.9375 
Q 60.6875 21.78125 60.6875 36.53125 
Q 60.6875 51.171875 53.6875 57.984375 
Q 46.6875 64.796875 31.59375 64.796875 
z
M 9.8125 72.90625 
L 30.078125 72.90625 
Q 51.265625 72.90625 61.171875 64.09375 
Q 71.09375 55.28125 71.09375 36.53125 
Q 71.09375 17.671875 61.125 8.828125 
Q 51.171875 0 30.078125 0 
L 9.8125 0 
z
" id="DejaVuSans-68"/>
      <path d="M 34.28125 27.484375 
Q 23.390625 27.484375 19.1875 25 
Q 14.984375 22.515625 14.984375 16.5 
Q 14.984375 11.71875 18.140625 8.90625 
Q 21.296875 6.109375 26.703125 6.109375 
Q 34.1875 6.109375 38.703125 11.40625 
Q 43.21875 16.703125 43.21875 25.484375 
L 43.21875 27.484375 
z
M 52.203125 31.203125 
L 52.203125 0 
L 43.21875 0 
L 43.21875 8.296875 
Q 40.140625 3.328125 35.546875 0.953125 
Q 30.953125 -1.421875 24.3125 -1.421875 
Q 15.921875 -1.421875 10.953125 3.296875 
Q 6 8.015625 6 15.921875 
Q 6 25.140625 12.171875 29.828125 
Q 18.359375 34.515625 30.609375 34.515625 
L 43.21875 34.515625 
L 43.21875 35.40625 
Q 43.21875 41.609375 39.140625 45 
Q 35.0625 48.390625 27.6875 48.390625 
Q 23 48.390625 18.546875 47.265625 
Q 14.109375 46.140625 10.015625 43.890625 
L 10.015625 52.203125 
Q 14.9375 54.109375 19.578125 55.046875 
Q 24.21875 56 28.609375 56 
Q 40.484375 56 46.34375 49.84375 
Q 52.203125 43.703125 52.203125 31.203125 
z
" id="DejaVuSans-97"/>
      <path d="M 18.3125 70.21875 
L 18.3125 54.6875 
L 36.8125 54.6875 
L 36.8125 47.703125 
L 18.3125 47.703125 
L 18.3125 18.015625 
Q 18.3125 11.328125 20.140625 9.421875 
Q 21.96875 7.515625 27.59375 7.515625 
L 36.8125 7.515625 
L 36.8125 0 
L 27.59375 0 
Q 17.1875 0 13.234375 3.875 
Q 9.28125 7.765625 9.28125 18.015625 
L 9.28125 47.703125 
L 2.6875 47.703125 
L 2.6875 54.6875 
L 9.28125 54.6875 
L 9.28125 70.21875 
z
" id="DejaVuSans-116"/>
      <path d="M 44.28125 53.078125 
L 44.28125 44.578125 
Q 40.484375 46.53125 36.375 47.5 
Q 32.28125 48.484375 27.875 48.484375 
Q 21.1875 48.484375 17.84375 46.4375 
Q 14.5 44.390625 14.5 40.28125 
Q 14.5 37.15625 16.890625 35.375 
Q 19.28125 33.59375 26.515625 31.984375 
L 29.59375 31.296875 
Q 39.15625 29.25 43.1875 25.515625 
Q 47.21875 21.78125 47.21875 15.09375 
Q 47.21875 7.46875 41.1875 3.015625 
Q 35.15625 -1.421875 24.609375 -1.421875 
Q 20.21875 -1.421875 15.453125 -0.5625 
Q 10.6875 0.296875 5.421875 2 
L 5.421875 11.28125 
Q 10.40625 8.6875 15.234375 7.390625 
Q 20.0625 6.109375 24.8125 6.109375 
Q 31.15625 6.109375 34.5625 8.28125 
Q 37.984375 10.453125 37.984375 14.40625 
Q 37.984375 18.0625 35.515625 20.015625 
Q 33.0625 21.96875 24.703125 23.78125 
L 21.578125 24.515625 
Q 13.234375 26.265625 9.515625 29.90625 
Q 5.8125 33.546875 5.8125 39.890625 
Q 5.8125 47.609375 11.28125 51.796875 
Q 16.75 56 26.8125 56 
Q 31.78125 56 36.171875 55.265625 
Q 40.578125 54.546875 44.28125 53.078125 
z
" id="DejaVuSans-115"/>
      <path d="M 19.671875 64.796875 
L 19.671875 37.40625 
L 32.078125 37.40625 
Q 38.96875 37.40625 42.71875 40.96875 
Q 46.484375 44.53125 46.484375 51.125 
Q 46.484375 57.671875 42.71875 61.234375 
Q 38.96875 64.796875 32.078125 64.796875 
z
M 9.8125 72.90625 
L 32.078125 72.90625 
Q 44.34375 72.90625 50.609375 67.359375 
Q 56.890625 61.8125 56.890625 51.125 
Q 56.890625 40.328125 50.609375 34.8125 
Q 44.34375 29.296875 32.078125 29.296875 
L 19.671875 29.296875 
L 19.671875 0 
L 9.8125 0 
z
" id="DejaVuSans-80"/>
      <path d="M 9.8125 72.90625 
L 51.703125 72.90625 
L 51.703125 64.59375 
L 19.671875 64.59375 
L 19.671875 43.109375 
L 48.578125 43.109375 
L 48.578125 34.8125 
L 19.671875 34.8125 
L 19.671875 0 
L 9.8125 0 
z
" id="DejaVuSans-70"/>
     </defs>
     <g transform="translate(79.8 129.363563)scale(0.06 -0.06)">
      <use xlink:href="#DejaVuSans-32"/>
      <use x="31.787109" xlink:href="#DejaVuSans-50"/>
      <use x="95.410156" xlink:href="#DejaVuSans-48"/>
      <use x="159.033203" xlink:href="#DejaVuSans-49"/>
      <use x="222.65625" xlink:href="#DejaVuSans-55"/>
      <use x="286.279297" xlink:href="#DejaVuSans-32"/>
      <use x="318.066406" xlink:href="#DejaVuSans-68"/>
      <use x="395.068359" xlink:href="#DejaVuSans-97"/>
      <use x="456.347656" xlink:href="#DejaVuSans-116"/>
      <use x="495.556641" xlink:href="#DejaVuSans-97"/>
      <use x="556.835938" xlink:href="#DejaVuSans-32"/>
      <use x="588.623047" xlink:href="#DejaVuSans-97"/>
      <use x="649.902344" xlink:href="#DejaVuSans-115"/>
      <use x="702.001953" xlink:href="#DejaVuSans-32"/>
      <use x="733.789062" xlink:href="#DejaVuSans-80"/>
      <use x="794.091797" xlink:href="#DejaVuSans-68"/>
      <use x="871.09375" xlink:href="#DejaVuSans-70"/>
     </g>
    </g>
    <g id="line2d_75">
     <path d="M 63 136.070437 
L 75 136.070437 
" style="fill:none;stroke:#ff7f0e;stroke-dasharray:1.5,2.475;stroke-dashoffset:0;stroke-width:1.5;"/>
    </g>
    <g id="line2d_76"/>
    <g id="text_9">
     <!-- Fitted Powerlaw PDF -->
     <defs>
      <path d="M 9.421875 54.6875 
L 18.40625 54.6875 
L 18.40625 0 
L 9.421875 0 
z
M 9.421875 75.984375 
L 18.40625 75.984375 
L 18.40625 64.59375 
L 9.421875 64.59375 
z
" id="DejaVuSans-105"/>
      <path d="M 56.203125 29.59375 
L 56.203125 25.203125 
L 14.890625 25.203125 
Q 15.484375 15.921875 20.484375 11.0625 
Q 25.484375 6.203125 34.421875 6.203125 
Q 39.59375 6.203125 44.453125 7.46875 
Q 49.3125 8.734375 54.109375 11.28125 
L 54.109375 2.78125 
Q 49.265625 0.734375 44.1875 -0.34375 
Q 39.109375 -1.421875 33.890625 -1.421875 
Q 20.796875 -1.421875 13.15625 6.1875 
Q 5.515625 13.8125 5.515625 26.8125 
Q 5.515625 40.234375 12.765625 48.109375 
Q 20.015625 56 32.328125 56 
Q 43.359375 56 49.78125 48.890625 
Q 56.203125 41.796875 56.203125 29.59375 
z
M 47.21875 32.234375 
Q 47.125 39.59375 43.09375 43.984375 
Q 39.0625 48.390625 32.421875 48.390625 
Q 24.90625 48.390625 20.390625 44.140625 
Q 15.875 39.890625 15.1875 32.171875 
z
" id="DejaVuSans-101"/>
      <path d="M 45.40625 46.390625 
L 45.40625 75.984375 
L 54.390625 75.984375 
L 54.390625 0 
L 45.40625 0 
L 45.40625 8.203125 
Q 42.578125 3.328125 38.25 0.953125 
Q 33.9375 -1.421875 27.875 -1.421875 
Q 17.96875 -1.421875 11.734375 6.484375 
Q 5.515625 14.40625 5.515625 27.296875 
Q 5.515625 40.1875 11.734375 48.09375 
Q 17.96875 56 27.875 56 
Q 33.9375 56 38.25 53.625 
Q 42.578125 51.265625 45.40625 46.390625 
z
M 14.796875 27.296875 
Q 14.796875 17.390625 18.875 11.75 
Q 22.953125 6.109375 30.078125 6.109375 
Q 37.203125 6.109375 41.296875 11.75 
Q 45.40625 17.390625 45.40625 27.296875 
Q 45.40625 37.203125 41.296875 42.84375 
Q 37.203125 48.484375 30.078125 48.484375 
Q 22.953125 48.484375 18.875 42.84375 
Q 14.796875 37.203125 14.796875 27.296875 
z
" id="DejaVuSans-100"/>
      <path d="M 30.609375 48.390625 
Q 23.390625 48.390625 19.1875 42.75 
Q 14.984375 37.109375 14.984375 27.296875 
Q 14.984375 17.484375 19.15625 11.84375 
Q 23.34375 6.203125 30.609375 6.203125 
Q 37.796875 6.203125 41.984375 11.859375 
Q 46.1875 17.53125 46.1875 27.296875 
Q 46.1875 37.015625 41.984375 42.703125 
Q 37.796875 48.390625 30.609375 48.390625 
z
M 30.609375 56 
Q 42.328125 56 49.015625 48.375 
Q 55.71875 40.765625 55.71875 27.296875 
Q 55.71875 13.875 49.015625 6.21875 
Q 42.328125 -1.421875 30.609375 -1.421875 
Q 18.84375 -1.421875 12.171875 6.21875 
Q 5.515625 13.875 5.515625 27.296875 
Q 5.515625 40.765625 12.171875 48.375 
Q 18.84375 56 30.609375 56 
z
" id="DejaVuSans-111"/>
      <path d="M 4.203125 54.6875 
L 13.1875 54.6875 
L 24.421875 12.015625 
L 35.59375 54.6875 
L 46.1875 54.6875 
L 57.421875 12.015625 
L 68.609375 54.6875 
L 77.59375 54.6875 
L 63.28125 0 
L 52.6875 0 
L 40.921875 44.828125 
L 29.109375 0 
L 18.5 0 
z
" id="DejaVuSans-119"/>
      <path d="M 41.109375 46.296875 
Q 39.59375 47.171875 37.8125 47.578125 
Q 36.03125 48 33.890625 48 
Q 26.265625 48 22.1875 43.046875 
Q 18.109375 38.09375 18.109375 28.8125 
L 18.109375 0 
L 9.078125 0 
L 9.078125 54.6875 
L 18.109375 54.6875 
L 18.109375 46.1875 
Q 20.953125 51.171875 25.484375 53.578125 
Q 30.03125 56 36.53125 56 
Q 37.453125 56 38.578125 55.875 
Q 39.703125 55.765625 41.0625 55.515625 
z
" id="DejaVuSans-114"/>
      <path d="M 9.421875 75.984375 
L 18.40625 75.984375 
L 18.40625 0 
L 9.421875 0 
z
" id="DejaVuSans-108"/>
     </defs>
     <g transform="translate(79.8 138.170437)scale(0.06 -0.06)">
      <use xlink:href="#DejaVuSans-70"/>
      <use x="57.410156" xlink:href="#DejaVuSans-105"/>
      <use x="85.193359" xlink:href="#DejaVuSans-116"/>
      <use x="124.402344" xlink:href="#DejaVuSans-116"/>
      <use x="163.611328" xlink:href="#DejaVuSans-101"/>
      <use x="225.134766" xlink:href="#DejaVuSans-100"/>
      <use x="288.611328" xlink:href="#DejaVuSans-32"/>
      <use x="320.398438" xlink:href="#DejaVuSans-80"/>
      <use x="380.654297" xlink:href="#DejaVuSans-111"/>
      <use x="441.835938" xlink:href="#DejaVuSans-119"/>
      <use x="523.623047" xlink:href="#DejaVuSans-101"/>
      <use x="585.146484" xlink:href="#DejaVuSans-114"/>
      <use x="626.259766" xlink:href="#DejaVuSans-108"/>
      <use x="654.042969" xlink:href="#DejaVuSans-97"/>
      <use x="715.322266" xlink:href="#DejaVuSans-119"/>
      <use x="797.109375" xlink:href="#DejaVuSans-32"/>
      <use x="828.896484" xlink:href="#DejaVuSans-80"/>
      <use x="889.199219" xlink:href="#DejaVuSans-68"/>
      <use x="966.201172" xlink:href="#DejaVuSans-70"/>
     </g>
    </g>
    <g id="line2d_77">
     <path d="M 63 144.877313 
L 75 144.877313 
" style="fill:none;stroke:#2ca02c;stroke-dasharray:9.6,2.4,1.5,2.4;stroke-dashoffset:0;stroke-width:1.5;"/>
    </g>
    <g id="line2d_78"/>
    <g id="text_10">
     <!-- Fitted Lognormal PDF -->
     <defs>
      <path d="M 9.8125 72.90625 
L 19.671875 72.90625 
L 19.671875 8.296875 
L 55.171875 8.296875 
L 55.171875 0 
L 9.8125 0 
z
" id="DejaVuSans-76"/>
      <path d="M 45.40625 27.984375 
Q 45.40625 37.75 41.375 43.109375 
Q 37.359375 48.484375 30.078125 48.484375 
Q 22.859375 48.484375 18.828125 43.109375 
Q 14.796875 37.75 14.796875 27.984375 
Q 14.796875 18.265625 18.828125 12.890625 
Q 22.859375 7.515625 30.078125 7.515625 
Q 37.359375 7.515625 41.375 12.890625 
Q 45.40625 18.265625 45.40625 27.984375 
z
M 54.390625 6.78125 
Q 54.390625 -7.171875 48.1875 -13.984375 
Q 42 -20.796875 29.203125 -20.796875 
Q 24.46875 -20.796875 20.265625 -20.09375 
Q 16.0625 -19.390625 12.109375 -17.921875 
L 12.109375 -9.1875 
Q 16.0625 -11.328125 19.921875 -12.34375 
Q 23.78125 -13.375 27.78125 -13.375 
Q 36.625 -13.375 41.015625 -8.765625 
Q 45.40625 -4.15625 45.40625 5.171875 
L 45.40625 9.625 
Q 42.625 4.78125 38.28125 2.390625 
Q 33.9375 0 27.875 0 
Q 17.828125 0 11.671875 7.65625 
Q 5.515625 15.328125 5.515625 27.984375 
Q 5.515625 40.671875 11.671875 48.328125 
Q 17.828125 56 27.875 56 
Q 33.9375 56 38.28125 53.609375 
Q 42.625 51.21875 45.40625 46.390625 
L 45.40625 54.6875 
L 54.390625 54.6875 
z
" id="DejaVuSans-103"/>
      <path d="M 54.890625 33.015625 
L 54.890625 0 
L 45.90625 0 
L 45.90625 32.71875 
Q 45.90625 40.484375 42.875 44.328125 
Q 39.84375 48.1875 33.796875 48.1875 
Q 26.515625 48.1875 22.3125 43.546875 
Q 18.109375 38.921875 18.109375 30.90625 
L 18.109375 0 
L 9.078125 0 
L 9.078125 54.6875 
L 18.109375 54.6875 
L 18.109375 46.1875 
Q 21.34375 51.125 25.703125 53.5625 
Q 30.078125 56 35.796875 56 
Q 45.21875 56 50.046875 50.171875 
Q 54.890625 44.34375 54.890625 33.015625 
z
" id="DejaVuSans-110"/>
      <path d="M 52 44.1875 
Q 55.375 50.25 60.0625 53.125 
Q 64.75 56 71.09375 56 
Q 79.640625 56 84.28125 50.015625 
Q 88.921875 44.046875 88.921875 33.015625 
L 88.921875 0 
L 79.890625 0 
L 79.890625 32.71875 
Q 79.890625 40.578125 77.09375 44.375 
Q 74.3125 48.1875 68.609375 48.1875 
Q 61.625 48.1875 57.5625 43.546875 
Q 53.515625 38.921875 53.515625 30.90625 
L 53.515625 0 
L 44.484375 0 
L 44.484375 32.71875 
Q 44.484375 40.625 41.703125 44.40625 
Q 38.921875 48.1875 33.109375 48.1875 
Q 26.21875 48.1875 22.15625 43.53125 
Q 18.109375 38.875 18.109375 30.90625 
L 18.109375 0 
L 9.078125 0 
L 9.078125 54.6875 
L 18.109375 54.6875 
L 18.109375 46.1875 
Q 21.1875 51.21875 25.484375 53.609375 
Q 29.78125 56 35.6875 56 
Q 41.65625 56 45.828125 52.96875 
Q 50 49.953125 52 44.1875 
z
" id="DejaVuSans-109"/>
     </defs>
     <g transform="translate(79.8 146.977313)scale(0.06 -0.06)">
      <use xlink:href="#DejaVuSans-70"/>
      <use x="57.410156" xlink:href="#DejaVuSans-105"/>
      <use x="85.193359" xlink:href="#DejaVuSans-116"/>
      <use x="124.402344" xlink:href="#DejaVuSans-116"/>
      <use x="163.611328" xlink:href="#DejaVuSans-101"/>
      <use x="225.134766" xlink:href="#DejaVuSans-100"/>
      <use x="288.611328" xlink:href="#DejaVuSans-32"/>
      <use x="320.398438" xlink:href="#DejaVuSans-76"/>
      <use x="376.095703" xlink:href="#DejaVuSans-111"/>
      <use x="437.277344" xlink:href="#DejaVuSans-103"/>
      <use x="500.753906" xlink:href="#DejaVuSans-110"/>
      <use x="564.132812" xlink:href="#DejaVuSans-111"/>
      <use x="625.314453" xlink:href="#DejaVuSans-114"/>
      <use x="666.412109" xlink:href="#DejaVuSans-109"/>
      <use x="763.824219" xlink:href="#DejaVuSans-97"/>
      <use x="825.103516" xlink:href="#DejaVuSans-108"/>
      <use x="852.886719" xlink:href="#DejaVuSans-32"/>
      <use x="884.673828" xlink:href="#DejaVuSans-80"/>
      <use x="944.976562" xlink:href="#DejaVuSans-68"/>
      <use x="1021.978516" xlink:href="#DejaVuSans-70"/>
     </g>
    </g>
    <g id="line2d_79">
     <path d="M 63 153.684188 
L 75 153.684188 
" style="fill:none;stroke:#d62728;stroke-dasharray:5.55,2.4;stroke-dashoffset:0;stroke-width:1.5;"/>
    </g>
    <g id="line2d_80"/>
    <g id="text_11">
     <!-- Fitted truncated Powerlaw PDF -->
     <defs>
      <path d="M 8.5 21.578125 
L 8.5 54.6875 
L 17.484375 54.6875 
L 17.484375 21.921875 
Q 17.484375 14.15625 20.5 10.265625 
Q 23.53125 6.390625 29.59375 6.390625 
Q 36.859375 6.390625 41.078125 11.03125 
Q 45.3125 15.671875 45.3125 23.6875 
L 45.3125 54.6875 
L 54.296875 54.6875 
L 54.296875 0 
L 45.3125 0 
L 45.3125 8.40625 
Q 42.046875 3.421875 37.71875 1 
Q 33.40625 -1.421875 27.6875 -1.421875 
Q 18.265625 -1.421875 13.375 4.4375 
Q 8.5 10.296875 8.5 21.578125 
z
M 31.109375 56 
z
" id="DejaVuSans-117"/>
      <path d="M 48.78125 52.59375 
L 48.78125 44.1875 
Q 44.96875 46.296875 41.140625 47.34375 
Q 37.3125 48.390625 33.40625 48.390625 
Q 24.65625 48.390625 19.8125 42.84375 
Q 14.984375 37.3125 14.984375 27.296875 
Q 14.984375 17.28125 19.8125 11.734375 
Q 24.65625 6.203125 33.40625 6.203125 
Q 37.3125 6.203125 41.140625 7.25 
Q 44.96875 8.296875 48.78125 10.40625 
L 48.78125 2.09375 
Q 45.015625 0.34375 40.984375 -0.53125 
Q 36.96875 -1.421875 32.421875 -1.421875 
Q 20.0625 -1.421875 12.78125 6.34375 
Q 5.515625 14.109375 5.515625 27.296875 
Q 5.515625 40.671875 12.859375 48.328125 
Q 20.21875 56 33.015625 56 
Q 37.15625 56 41.109375 55.140625 
Q 45.0625 54.296875 48.78125 52.59375 
z
" id="DejaVuSans-99"/>
     </defs>
     <g transform="translate(79.8 155.784188)scale(0.06 -0.06)">
      <use xlink:href="#DejaVuSans-70"/>
      <use x="57.410156" xlink:href="#DejaVuSans-105"/>
      <use x="85.193359" xlink:href="#DejaVuSans-116"/>
      <use x="124.402344" xlink:href="#DejaVuSans-116"/>
      <use x="163.611328" xlink:href="#DejaVuSans-101"/>
      <use x="225.134766" xlink:href="#DejaVuSans-100"/>
      <use x="288.611328" xlink:href="#DejaVuSans-32"/>
      <use x="320.398438" xlink:href="#DejaVuSans-116"/>
      <use x="359.607422" xlink:href="#DejaVuSans-114"/>
      <use x="400.720703" xlink:href="#DejaVuSans-117"/>
      <use x="464.099609" xlink:href="#DejaVuSans-110"/>
      <use x="527.478516" xlink:href="#DejaVuSans-99"/>
      <use x="582.458984" xlink:href="#DejaVuSans-97"/>
      <use x="643.738281" xlink:href="#DejaVuSans-116"/>
      <use x="682.947266" xlink:href="#DejaVuSans-101"/>
      <use x="744.470703" xlink:href="#DejaVuSans-100"/>
      <use x="807.947266" xlink:href="#DejaVuSans-32"/>
      <use x="839.734375" xlink:href="#DejaVuSans-80"/>
      <use x="899.990234" xlink:href="#DejaVuSans-111"/>
      <use x="961.171875" xlink:href="#DejaVuSans-119"/>
      <use x="1042.958984" xlink:href="#DejaVuSans-101"/>
      <use x="1104.482422" xlink:href="#DejaVuSans-114"/>
      <use x="1145.595703" xlink:href="#DejaVuSans-108"/>
      <use x="1173.378906" xlink:href="#DejaVuSans-97"/>
      <use x="1234.658203" xlink:href="#DejaVuSans-119"/>
      <use x="1316.445312" xlink:href="#DejaVuSans-32"/>
      <use x="1348.232422" xlink:href="#DejaVuSans-80"/>
      <use x="1408.535156" xlink:href="#DejaVuSans-68"/>
      <use x="1485.537109" xlink:href="#DejaVuSans-70"/>
     </g>
    </g>
   </g>
  </g>
  <g id="axes_2">
   <g id="patch_8">
    <path d="M 57.6 307.584 
L 414.72 307.584 
L 414.72 186.624 
L 57.6 186.624 
z
" style="fill:#ffffff;"/>
   </g>
   <g id="matplotlib.axis_3">
    <g id="xtick_22">
     <g id="line2d_81">
      <g>
       <use style="stroke:#000000;stroke-width:0.8;" x="87.287357" xlink:href="#m61eb44ddba" y="307.584"/>
      </g>
     </g>
     <g id="text_12">
      <!-- $\mathdefault{10^{2}}$ -->
      <g transform="translate(78.487357 322.182437)scale(0.1 -0.1)">
       <use transform="translate(0 0.765625)" xlink:href="#DejaVuSans-49"/>
       <use transform="translate(63.623047 0.765625)" xlink:href="#DejaVuSans-48"/>
       <use transform="translate(128.203125 39.046875)scale(0.7)" xlink:href="#DejaVuSans-50"/>
      </g>
     </g>
    </g>
    <g id="xtick_23">
     <g id="line2d_82">
      <g>
       <use style="stroke:#000000;stroke-width:0.8;" x="253.554191" xlink:href="#m61eb44ddba" y="307.584"/>
      </g>
     </g>
     <g id="text_13">
      <!-- $\mathdefault{10^{3}}$ -->
      <g transform="translate(244.754191 322.182437)scale(0.1 -0.1)">
       <use transform="translate(0 0.765625)" xlink:href="#DejaVuSans-49"/>
       <use transform="translate(63.623047 0.765625)" xlink:href="#DejaVuSans-48"/>
       <use transform="translate(128.203125 39.046875)scale(0.7)" xlink:href="#DejaVuSans-51"/>
      </g>
     </g>
    </g>
    <g id="xtick_24">
     <g id="line2d_83">
      <g>
       <use style="stroke:#000000;stroke-width:0.6;" x="61.532298" xlink:href="#mb8f25af588" y="307.584"/>
      </g>
     </g>
    </g>
    <g id="xtick_25">
     <g id="line2d_84">
      <g>
       <use style="stroke:#000000;stroke-width:0.6;" x="71.174436" xlink:href="#mb8f25af588" y="307.584"/>
      </g>
     </g>
    </g>
    <g id="xtick_26">
     <g id="line2d_85">
      <g>
       <use style="stroke:#000000;stroke-width:0.6;" x="79.679404" xlink:href="#mb8f25af588" y="307.584"/>
      </g>
     </g>
    </g>
    <g id="xtick_27">
     <g id="line2d_86">
      <g>
       <use style="stroke:#000000;stroke-width:0.6;" x="137.338661" xlink:href="#mb8f25af588" y="307.584"/>
      </g>
     </g>
    </g>
    <g id="xtick_28">
     <g id="line2d_87">
      <g>
       <use style="stroke:#000000;stroke-width:0.6;" x="166.616797" xlink:href="#mb8f25af588" y="307.584"/>
      </g>
     </g>
    </g>
    <g id="xtick_29">
     <g id="line2d_88">
      <g>
       <use style="stroke:#000000;stroke-width:0.6;" x="187.389966" xlink:href="#mb8f25af588" y="307.584"/>
      </g>
     </g>
    </g>
    <g id="xtick_30">
     <g id="line2d_89">
      <g>
       <use style="stroke:#000000;stroke-width:0.6;" x="203.502887" xlink:href="#mb8f25af588" y="307.584"/>
      </g>
     </g>
    </g>
    <g id="xtick_31">
     <g id="line2d_90">
      <g>
       <use style="stroke:#000000;stroke-width:0.6;" x="216.668102" xlink:href="#mb8f25af588" y="307.584"/>
      </g>
     </g>
    </g>
    <g id="xtick_32">
     <g id="line2d_91">
      <g>
       <use style="stroke:#000000;stroke-width:0.6;" x="227.799133" xlink:href="#mb8f25af588" y="307.584"/>
      </g>
     </g>
    </g>
    <g id="xtick_33">
     <g id="line2d_92">
      <g>
       <use style="stroke:#000000;stroke-width:0.6;" x="237.44127" xlink:href="#mb8f25af588" y="307.584"/>
      </g>
     </g>
    </g>
    <g id="xtick_34">
     <g id="line2d_93">
      <g>
       <use style="stroke:#000000;stroke-width:0.6;" x="245.946238" xlink:href="#mb8f25af588" y="307.584"/>
      </g>
     </g>
    </g>
    <g id="xtick_35">
     <g id="line2d_94">
      <g>
       <use style="stroke:#000000;stroke-width:0.6;" x="303.605496" xlink:href="#mb8f25af588" y="307.584"/>
      </g>
     </g>
    </g>
    <g id="xtick_36">
     <g id="line2d_95">
      <g>
       <use style="stroke:#000000;stroke-width:0.6;" x="332.883632" xlink:href="#mb8f25af588" y="307.584"/>
      </g>
     </g>
    </g>
    <g id="xtick_37">
     <g id="line2d_96">
      <g>
       <use style="stroke:#000000;stroke-width:0.6;" x="353.6568" xlink:href="#mb8f25af588" y="307.584"/>
      </g>
     </g>
    </g>
    <g id="xtick_38">
     <g id="line2d_97">
      <g>
       <use style="stroke:#000000;stroke-width:0.6;" x="369.769721" xlink:href="#mb8f25af588" y="307.584"/>
      </g>
     </g>
    </g>
    <g id="xtick_39">
     <g id="line2d_98">
      <g>
       <use style="stroke:#000000;stroke-width:0.6;" x="382.934937" xlink:href="#mb8f25af588" y="307.584"/>
      </g>
     </g>
    </g>
    <g id="xtick_40">
     <g id="line2d_99">
      <g>
       <use style="stroke:#000000;stroke-width:0.6;" x="394.065967" xlink:href="#mb8f25af588" y="307.584"/>
      </g>
     </g>
    </g>
    <g id="xtick_41">
     <g id="line2d_100">
      <g>
       <use style="stroke:#000000;stroke-width:0.6;" x="403.708105" xlink:href="#mb8f25af588" y="307.584"/>
      </g>
     </g>
    </g>
    <g id="xtick_42">
     <g id="line2d_101">
      <g>
       <use style="stroke:#000000;stroke-width:0.6;" x="412.213073" xlink:href="#mb8f25af588" y="307.584"/>
      </g>
     </g>
    </g>
   </g>
   <g id="matplotlib.axis_4">
    <g id="ytick_48">
     <g id="line2d_102">
      <g>
       <use style="stroke:#000000;stroke-width:0.8;" x="57.6" xlink:href="#m8222b84d2e" y="304.004933"/>
      </g>
     </g>
     <g id="text_14">
      <!-- $\mathdefault{10^{-7}}$ -->
      <g transform="translate(27.1 307.804152)scale(0.1 -0.1)">
       <use transform="translate(0 0.684375)" xlink:href="#DejaVuSans-49"/>
       <use transform="translate(63.623047 0.684375)" xlink:href="#DejaVuSans-48"/>
       <use transform="translate(128.203125 38.965625)scale(0.7)" xlink:href="#DejaVuSans-8722"/>
       <use transform="translate(186.855469 38.965625)scale(0.7)" xlink:href="#DejaVuSans-55"/>
      </g>
     </g>
    </g>
    <g id="ytick_49">
     <g id="line2d_103">
      <g>
       <use style="stroke:#000000;stroke-width:0.8;" x="57.6" xlink:href="#m8222b84d2e" y="282.888981"/>
      </g>
     </g>
     <g id="text_15">
      <!-- $\mathdefault{10^{-6}}$ -->
      <g transform="translate(27.1 286.688199)scale(0.1 -0.1)">
       <use transform="translate(0 0.765625)" xlink:href="#DejaVuSans-49"/>
       <use transform="translate(63.623047 0.765625)" xlink:href="#DejaVuSans-48"/>
       <use transform="translate(128.203125 39.046875)scale(0.7)" xlink:href="#DejaVuSans-8722"/>
       <use transform="translate(186.855469 39.046875)scale(0.7)" xlink:href="#DejaVuSans-54"/>
      </g>
     </g>
    </g>
    <g id="ytick_50">
     <g id="line2d_104">
      <g>
       <use style="stroke:#000000;stroke-width:0.8;" x="57.6" xlink:href="#m8222b84d2e" y="261.773028"/>
      </g>
     </g>
     <g id="text_16">
      <!-- $\mathdefault{10^{-5}}$ -->
      <g transform="translate(27.1 265.572247)scale(0.1 -0.1)">
       <use transform="translate(0 0.684375)" xlink:href="#DejaVuSans-49"/>
       <use transform="translate(63.623047 0.684375)" xlink:href="#DejaVuSans-48"/>
       <use transform="translate(128.203125 38.965625)scale(0.7)" xlink:href="#DejaVuSans-8722"/>
       <use transform="translate(186.855469 38.965625)scale(0.7)" xlink:href="#DejaVuSans-53"/>
      </g>
     </g>
    </g>
    <g id="ytick_51">
     <g id="line2d_105">
      <g>
       <use style="stroke:#000000;stroke-width:0.8;" x="57.6" xlink:href="#m8222b84d2e" y="240.657075"/>
      </g>
     </g>
     <g id="text_17">
      <!-- $\mathdefault{10^{-4}}$ -->
      <g transform="translate(27.1 244.456294)scale(0.1 -0.1)">
       <use transform="translate(0 0.684375)" xlink:href="#DejaVuSans-49"/>
       <use transform="translate(63.623047 0.684375)" xlink:href="#DejaVuSans-48"/>
       <use transform="translate(128.203125 38.965625)scale(0.7)" xlink:href="#DejaVuSans-8722"/>
       <use transform="translate(186.855469 38.965625)scale(0.7)" xlink:href="#DejaVuSans-52"/>
      </g>
     </g>
    </g>
    <g id="ytick_52">
     <g id="line2d_106">
      <g>
       <use style="stroke:#000000;stroke-width:0.8;" x="57.6" xlink:href="#m8222b84d2e" y="219.541123"/>
      </g>
     </g>
     <g id="text_18">
      <!-- $\mathdefault{10^{-3}}$ -->
      <g transform="translate(27.1 223.340341)scale(0.1 -0.1)">
       <use transform="translate(0 0.765625)" xlink:href="#DejaVuSans-49"/>
       <use transform="translate(63.623047 0.765625)" xlink:href="#DejaVuSans-48"/>
       <use transform="translate(128.203125 39.046875)scale(0.7)" xlink:href="#DejaVuSans-8722"/>
       <use transform="translate(186.855469 39.046875)scale(0.7)" xlink:href="#DejaVuSans-51"/>
      </g>
     </g>
    </g>
    <g id="ytick_53">
     <g id="line2d_107">
      <g>
       <use style="stroke:#000000;stroke-width:0.8;" x="57.6" xlink:href="#m8222b84d2e" y="198.42517"/>
      </g>
     </g>
     <g id="text_19">
      <!-- $\mathdefault{10^{-2}}$ -->
      <g transform="translate(27.1 202.224389)scale(0.1 -0.1)">
       <use transform="translate(0 0.765625)" xlink:href="#DejaVuSans-49"/>
       <use transform="translate(63.623047 0.765625)" xlink:href="#DejaVuSans-48"/>
       <use transform="translate(128.203125 39.046875)scale(0.7)" xlink:href="#DejaVuSans-8722"/>
       <use transform="translate(186.855469 39.046875)scale(0.7)" xlink:href="#DejaVuSans-50"/>
      </g>
     </g>
    </g>
    <g id="ytick_54">
     <g id="line2d_108">
      <g>
       <use style="stroke:#000000;stroke-width:0.6;" x="57.6" xlink:href="#mdf552a7e9f" y="307.275836"/>
      </g>
     </g>
    </g>
    <g id="ytick_55">
     <g id="line2d_109">
      <g>
       <use style="stroke:#000000;stroke-width:0.6;" x="57.6" xlink:href="#mdf552a7e9f" y="306.05128"/>
      </g>
     </g>
    </g>
    <g id="ytick_56">
     <g id="line2d_110">
      <g>
       <use style="stroke:#000000;stroke-width:0.6;" x="57.6" xlink:href="#mdf552a7e9f" y="304.971146"/>
      </g>
     </g>
    </g>
    <g id="ytick_57">
     <g id="line2d_111">
      <g>
       <use style="stroke:#000000;stroke-width:0.6;" x="57.6" xlink:href="#mdf552a7e9f" y="297.648398"/>
      </g>
     </g>
    </g>
    <g id="ytick_58">
     <g id="line2d_112">
      <g>
       <use style="stroke:#000000;stroke-width:0.6;" x="57.6" xlink:href="#mdf552a7e9f" y="293.930063"/>
      </g>
     </g>
    </g>
    <g id="ytick_59">
     <g id="line2d_113">
      <g>
       <use style="stroke:#000000;stroke-width:0.6;" x="57.6" xlink:href="#mdf552a7e9f" y="291.291863"/>
      </g>
     </g>
    </g>
    <g id="ytick_60">
     <g id="line2d_114">
      <g>
       <use style="stroke:#000000;stroke-width:0.6;" x="57.6" xlink:href="#mdf552a7e9f" y="289.245516"/>
      </g>
     </g>
    </g>
    <g id="ytick_61">
     <g id="line2d_115">
      <g>
       <use style="stroke:#000000;stroke-width:0.6;" x="57.6" xlink:href="#mdf552a7e9f" y="287.573528"/>
      </g>
     </g>
    </g>
    <g id="ytick_62">
     <g id="line2d_116">
      <g>
       <use style="stroke:#000000;stroke-width:0.6;" x="57.6" xlink:href="#mdf552a7e9f" y="286.159883"/>
      </g>
     </g>
    </g>
    <g id="ytick_63">
     <g id="line2d_117">
      <g>
       <use style="stroke:#000000;stroke-width:0.6;" x="57.6" xlink:href="#mdf552a7e9f" y="284.935328"/>
      </g>
     </g>
    </g>
    <g id="ytick_64">
     <g id="line2d_118">
      <g>
       <use style="stroke:#000000;stroke-width:0.6;" x="57.6" xlink:href="#mdf552a7e9f" y="283.855194"/>
      </g>
     </g>
    </g>
    <g id="ytick_65">
     <g id="line2d_119">
      <g>
       <use style="stroke:#000000;stroke-width:0.6;" x="57.6" xlink:href="#mdf552a7e9f" y="276.532445"/>
      </g>
     </g>
    </g>
    <g id="ytick_66">
     <g id="line2d_120">
      <g>
       <use style="stroke:#000000;stroke-width:0.6;" x="57.6" xlink:href="#mdf552a7e9f" y="272.814111"/>
      </g>
     </g>
    </g>
    <g id="ytick_67">
     <g id="line2d_121">
      <g>
       <use style="stroke:#000000;stroke-width:0.6;" x="57.6" xlink:href="#mdf552a7e9f" y="270.17591"/>
      </g>
     </g>
    </g>
    <g id="ytick_68">
     <g id="line2d_122">
      <g>
       <use style="stroke:#000000;stroke-width:0.6;" x="57.6" xlink:href="#mdf552a7e9f" y="268.129563"/>
      </g>
     </g>
    </g>
    <g id="ytick_69">
     <g id="line2d_123">
      <g>
       <use style="stroke:#000000;stroke-width:0.6;" x="57.6" xlink:href="#mdf552a7e9f" y="266.457576"/>
      </g>
     </g>
    </g>
    <g id="ytick_70">
     <g id="line2d_124">
      <g>
       <use style="stroke:#000000;stroke-width:0.6;" x="57.6" xlink:href="#mdf552a7e9f" y="265.04393"/>
      </g>
     </g>
    </g>
    <g id="ytick_71">
     <g id="line2d_125">
      <g>
       <use style="stroke:#000000;stroke-width:0.6;" x="57.6" xlink:href="#mdf552a7e9f" y="263.819375"/>
      </g>
     </g>
    </g>
    <g id="ytick_72">
     <g id="line2d_126">
      <g>
       <use style="stroke:#000000;stroke-width:0.6;" x="57.6" xlink:href="#mdf552a7e9f" y="262.739241"/>
      </g>
     </g>
    </g>
    <g id="ytick_73">
     <g id="line2d_127">
      <g>
       <use style="stroke:#000000;stroke-width:0.6;" x="57.6" xlink:href="#mdf552a7e9f" y="255.416493"/>
      </g>
     </g>
    </g>
    <g id="ytick_74">
     <g id="line2d_128">
      <g>
       <use style="stroke:#000000;stroke-width:0.6;" x="57.6" xlink:href="#mdf552a7e9f" y="251.698158"/>
      </g>
     </g>
    </g>
    <g id="ytick_75">
     <g id="line2d_129">
      <g>
       <use style="stroke:#000000;stroke-width:0.6;" x="57.6" xlink:href="#mdf552a7e9f" y="249.059958"/>
      </g>
     </g>
    </g>
    <g id="ytick_76">
     <g id="line2d_130">
      <g>
       <use style="stroke:#000000;stroke-width:0.6;" x="57.6" xlink:href="#mdf552a7e9f" y="247.01361"/>
      </g>
     </g>
    </g>
    <g id="ytick_77">
     <g id="line2d_131">
      <g>
       <use style="stroke:#000000;stroke-width:0.6;" x="57.6" xlink:href="#mdf552a7e9f" y="245.341623"/>
      </g>
     </g>
    </g>
    <g id="ytick_78">
     <g id="line2d_132">
      <g>
       <use style="stroke:#000000;stroke-width:0.6;" x="57.6" xlink:href="#mdf552a7e9f" y="243.927978"/>
      </g>
     </g>
    </g>
    <g id="ytick_79">
     <g id="line2d_133">
      <g>
       <use style="stroke:#000000;stroke-width:0.6;" x="57.6" xlink:href="#mdf552a7e9f" y="242.703423"/>
      </g>
     </g>
    </g>
    <g id="ytick_80">
     <g id="line2d_134">
      <g>
       <use style="stroke:#000000;stroke-width:0.6;" x="57.6" xlink:href="#mdf552a7e9f" y="241.623288"/>
      </g>
     </g>
    </g>
    <g id="ytick_81">
     <g id="line2d_135">
      <g>
       <use style="stroke:#000000;stroke-width:0.6;" x="57.6" xlink:href="#mdf552a7e9f" y="234.30054"/>
      </g>
     </g>
    </g>
    <g id="ytick_82">
     <g id="line2d_136">
      <g>
       <use style="stroke:#000000;stroke-width:0.6;" x="57.6" xlink:href="#mdf552a7e9f" y="230.582206"/>
      </g>
     </g>
    </g>
    <g id="ytick_83">
     <g id="line2d_137">
      <g>
       <use style="stroke:#000000;stroke-width:0.6;" x="57.6" xlink:href="#mdf552a7e9f" y="227.944005"/>
      </g>
     </g>
    </g>
    <g id="ytick_84">
     <g id="line2d_138">
      <g>
       <use style="stroke:#000000;stroke-width:0.6;" x="57.6" xlink:href="#mdf552a7e9f" y="225.897658"/>
      </g>
     </g>
    </g>
    <g id="ytick_85">
     <g id="line2d_139">
      <g>
       <use style="stroke:#000000;stroke-width:0.6;" x="57.6" xlink:href="#mdf552a7e9f" y="224.22567"/>
      </g>
     </g>
    </g>
    <g id="ytick_86">
     <g id="line2d_140">
      <g>
       <use style="stroke:#000000;stroke-width:0.6;" x="57.6" xlink:href="#mdf552a7e9f" y="222.812025"/>
      </g>
     </g>
    </g>
    <g id="ytick_87">
     <g id="line2d_141">
      <g>
       <use style="stroke:#000000;stroke-width:0.6;" x="57.6" xlink:href="#mdf552a7e9f" y="221.58747"/>
      </g>
     </g>
    </g>
    <g id="ytick_88">
     <g id="line2d_142">
      <g>
       <use style="stroke:#000000;stroke-width:0.6;" x="57.6" xlink:href="#mdf552a7e9f" y="220.507336"/>
      </g>
     </g>
    </g>
    <g id="ytick_89">
     <g id="line2d_143">
      <g>
       <use style="stroke:#000000;stroke-width:0.6;" x="57.6" xlink:href="#mdf552a7e9f" y="213.184588"/>
      </g>
     </g>
    </g>
    <g id="ytick_90">
     <g id="line2d_144">
      <g>
       <use style="stroke:#000000;stroke-width:0.6;" x="57.6" xlink:href="#mdf552a7e9f" y="209.466253"/>
      </g>
     </g>
    </g>
    <g id="ytick_91">
     <g id="line2d_145">
      <g>
       <use style="stroke:#000000;stroke-width:0.6;" x="57.6" xlink:href="#mdf552a7e9f" y="206.828053"/>
      </g>
     </g>
    </g>
    <g id="ytick_92">
     <g id="line2d_146">
      <g>
       <use style="stroke:#000000;stroke-width:0.6;" x="57.6" xlink:href="#mdf552a7e9f" y="204.781705"/>
      </g>
     </g>
    </g>
    <g id="ytick_93">
     <g id="line2d_147">
      <g>
       <use style="stroke:#000000;stroke-width:0.6;" x="57.6" xlink:href="#mdf552a7e9f" y="203.109718"/>
      </g>
     </g>
    </g>
    <g id="ytick_94">
     <g id="line2d_148">
      <g>
       <use style="stroke:#000000;stroke-width:0.6;" x="57.6" xlink:href="#mdf552a7e9f" y="201.696073"/>
      </g>
     </g>
    </g>
    <g id="ytick_95">
     <g id="line2d_149">
      <g>
       <use style="stroke:#000000;stroke-width:0.6;" x="57.6" xlink:href="#mdf552a7e9f" y="200.471517"/>
      </g>
     </g>
    </g>
    <g id="ytick_96">
     <g id="line2d_150">
      <g>
       <use style="stroke:#000000;stroke-width:0.6;" x="57.6" xlink:href="#mdf552a7e9f" y="199.391383"/>
      </g>
     </g>
    </g>
    <g id="ytick_97">
     <g id="line2d_151">
      <g>
       <use style="stroke:#000000;stroke-width:0.6;" x="57.6" xlink:href="#mdf552a7e9f" y="192.068635"/>
      </g>
     </g>
    </g>
    <g id="ytick_98">
     <g id="line2d_152">
      <g>
       <use style="stroke:#000000;stroke-width:0.6;" x="57.6" xlink:href="#mdf552a7e9f" y="188.3503"/>
      </g>
     </g>
    </g>
   </g>
   <g id="line2d_153">
    <path clip-path="url(#p74f066602e)" d="M 82.81941 193.899719 
L 99.848311 202.467841 
L 116.805789 206.560535 
L 133.824609 208.865225 
L 150.953777 220.027773 
L 168.164613 228.653175 
L 185.283536 228.036163 
L 202.41155 232.979053 
L 219.558018 245.147178 
M 322.090788 258.182055 
M 390.443534 266.860831 
" style="fill:none;stroke:#1f77b4;stroke-linecap:square;stroke-width:1.5;"/>
   </g>
   <g id="line2d_154">
    <path clip-path="url(#p74f066602e)" d="M 73.832727 192.122182 
L 74.697513 192.415093 
L 75.552065 192.704538 
L 77.231414 193.27335 
L 78.056666 193.552871 
L 78.872593 193.829233 
L 80.477299 194.372762 
L 81.266473 194.640064 
L 82.047116 194.904475 
L 82.81941 195.166058 
L 83.583531 195.424873 
L 84.339651 195.680978 
L 85.087935 195.93443 
L 85.828544 196.185281 
L 86.561634 196.433586 
L 88.005858 196.922758 
L 88.71728 197.163724 
L 89.421761 197.402339 
L 90.119436 197.638648 
L 90.810434 197.872696 
L 91.494883 198.104525 
L 92.172904 198.334177 
L 93.510142 198.787113 
L 94.169587 199.010473 
L 94.823065 199.231812 
L 96.748746 199.884059 
L 98.624404 200.519363 
L 99.848311 200.933912 
L 101.646132 201.542851 
L 102.235595 201.742508 
L 102.820285 201.940548 
L 103.97565 202.331881 
L 105.674758 202.907386 
L 106.232357 203.09625 
L 108.95754 204.019296 
L 110.54461 204.556852 
L 111.583603 204.908769 
L 112.097546 205.082846 
L 114.117504 205.767025 
L 115.596233 206.267885 
L 117.995416 207.080512 
L 119.397572 207.555436 
L 119.858972 207.711716 
L 120.773019 208.021313 
L 122.122755 208.478482 
L 122.567118 208.628992 
L 123.008763 208.778581 
L 123.447724 208.927261 
L 124.748818 209.367954 
L 126.026882 209.800847 
L 127.282719 210.226211 
L 128.517087 210.644304 
L 130.130758 211.19087 
L 132.4856 211.988477 
L 132.870714 212.118919 
L 133.634836 212.377735 
L 135.139239 212.887291 
L 136.612939 213.386447 
L 139.822746 214.47364 
L 141.204774 214.941746 
L 141.546187 215.057386 
L 144.220892 215.963334 
L 146.163846 216.621432 
L 148.675709 217.472224 
L 148.983636 217.576522 
L 153.162168 218.991831 
L 159.806739 221.242412 
L 166.616797 223.549044 
L 168.517138 224.192708 
L 178.364123 227.527977 
L 179.177752 227.803561 
L 184.630059 229.65031 
L 188.996655 231.129319 
L 203.934845 236.189028 
L 204.078259 236.237604 
L 209.193745 237.970268 
L 220.305706 241.733997 
L 313.351359 273.24946 
L 398.487273 302.085818 
" style="fill:none;stroke:#ff7f0e;stroke-dasharray:1.5,2.475;stroke-dashoffset:0;stroke-width:1.5;"/>
   </g>
   <g id="line2d_155">
    <path clip-path="url(#p74f066602e)" d="M 73.832727 192.129364 
L 74.697513 192.422009 
L 75.552065 192.711192 
L 77.231414 193.279498 
L 78.056666 193.558773 
L 78.872593 193.834894 
L 80.477299 194.377956 
L 81.266473 194.64503 
L 82.047116 194.909218 
L 82.81941 195.170583 
L 83.583531 195.429184 
L 84.339651 195.685079 
L 85.087935 195.938324 
L 85.828544 196.188973 
L 86.561634 196.437079 
L 88.005858 196.925865 
L 88.71728 197.166643 
L 89.421761 197.405073 
L 90.119436 197.641201 
L 90.810434 197.875071 
L 91.494883 198.106726 
L 92.172904 198.336206 
L 93.510142 198.788808 
L 94.169587 199.012006 
L 94.823065 199.233185 
L 96.748746 199.88497 
L 98.624404 200.519834 
L 99.848311 200.934103 
L 101.646132 201.54264 
L 102.235595 201.742167 
L 102.820285 201.940079 
L 103.97565 202.331164 
L 105.674758 202.90631 
L 106.232357 203.095059 
L 108.95754 204.017556 
L 110.54461 204.554803 
L 111.583603 204.906523 
L 112.097546 205.080504 
L 114.117504 205.764313 
L 115.596233 206.264911 
L 117.995416 207.077127 
L 119.397572 207.55182 
L 119.858972 207.708026 
L 120.773019 208.017478 
L 122.122755 208.474437 
L 122.567118 208.624879 
L 123.008763 208.774402 
L 123.447724 208.923017 
L 124.748818 209.363519 
L 126.026882 209.79623 
L 127.282719 210.221421 
L 128.517087 210.639349 
L 130.130758 211.185707 
L 132.4856 211.983027 
L 132.870714 212.113424 
L 133.634836 212.372151 
L 135.139239 212.881539 
L 136.612939 213.380538 
L 139.822746 214.467415 
L 141.204774 214.935395 
L 141.546187 215.051005 
L 144.220892 215.956732 
L 146.163846 216.614684 
L 148.675709 217.465307 
L 148.983636 217.569586 
L 153.162168 218.984666 
L 159.806739 221.235006 
L 166.616797 223.541549 
L 168.517138 224.185216 
L 178.364123 227.520702 
L 179.177752 227.796318 
L 184.630059 229.643346 
L 188.996655 231.122652 
L 203.934845 236.183876 
L 204.078259 236.23247 
L 209.193745 237.965834 
L 220.305706 241.731392 
L 313.351359 273.278965 
L 398.487273 225.143038 
" style="fill:none;stroke:#2ca02c;stroke-dasharray:9.6,2.4,1.5,2.4;stroke-dashoffset:0;stroke-width:1.5;"/>
   </g>
   <g id="line2d_156">
    <path clip-path="url(#p74f066602e)" d="M 73.832727 192.122923 
L 74.697513 192.41582 
L 75.552065 192.70525 
L 77.231414 193.274033 
L 78.056666 193.553539 
L 78.872593 193.829887 
L 80.477299 194.373389 
L 81.266473 194.640676 
L 82.047116 194.905074 
L 82.81941 195.166644 
L 83.583531 195.425446 
L 84.339651 195.681538 
L 85.087935 195.934976 
L 85.828544 196.185815 
L 86.561634 196.434107 
L 88.005858 196.923255 
L 88.71728 197.164208 
L 89.421761 197.40281 
L 90.119436 197.639108 
L 90.810434 197.873143 
L 91.494883 198.104961 
L 92.172904 198.334602 
L 93.510142 198.787514 
L 94.169587 199.010863 
L 94.823065 199.232191 
L 96.748746 199.884404 
L 98.624404 200.519675 
L 99.848311 200.934203 
L 101.646132 201.543112 
L 102.235595 201.742758 
L 102.820285 201.940788 
L 103.97565 202.332102 
L 105.674758 202.907577 
L 106.232357 203.096431 
L 108.95754 204.01943 
L 110.54461 204.556958 
L 111.583603 204.908857 
L 112.097546 205.082926 
L 114.117504 205.76707 
L 115.596233 206.267905 
L 117.995416 207.08049 
L 119.397572 207.555389 
L 119.858972 207.711662 
L 120.773019 208.021243 
L 122.122755 208.478388 
L 122.567118 208.62889 
L 123.008763 208.778472 
L 123.447724 208.927145 
L 124.748818 209.367816 
L 126.026882 209.800686 
L 127.282719 210.226028 
L 128.517087 210.6441 
L 130.130758 211.190638 
L 132.4856 211.988205 
L 132.870714 212.11864 
L 133.634836 212.377442 
L 135.139239 212.886972 
L 136.612939 213.386103 
L 139.822746 214.47324 
L 141.204774 214.941323 
L 141.546187 215.056957 
L 144.220892 215.962859 
L 146.163846 216.620923 
L 148.675709 217.471671 
L 148.983636 217.575964 
L 153.162168 218.991201 
L 159.806739 221.241667 
L 166.616797 223.548182 
L 168.517138 224.191812 
L 178.364123 227.526911 
L 179.177752 227.802481 
L 184.630059 229.649136 
L 188.996655 231.128069 
L 203.934845 236.18752 
L 204.078259 236.236093 
L 209.193745 237.96867 
L 220.305706 241.732206 
L 313.351359 273.246062 
L 398.487273 302.080952 
" style="fill:none;stroke:#d62728;stroke-dasharray:5.55,2.4;stroke-dashoffset:0;stroke-width:1.5;"/>
   </g>
   <g id="patch_9">
    <path d="M 57.6 307.584 
L 57.6 186.624 
" style="fill:none;stroke:#000000;stroke-linecap:square;stroke-linejoin:miter;stroke-width:0.8;"/>
   </g>
   <g id="patch_10">
    <path d="M 414.72 307.584 
L 414.72 186.624 
" style="fill:none;stroke:#000000;stroke-linecap:square;stroke-linejoin:miter;stroke-width:0.8;"/>
   </g>
   <g id="patch_11">
    <path d="M 57.6 307.584 
L 414.72 307.584 
" style="fill:none;stroke:#000000;stroke-linecap:square;stroke-linejoin:miter;stroke-width:0.8;"/>
   </g>
   <g id="patch_12">
    <path d="M 57.6 186.624 
L 414.72 186.624 
" style="fill:none;stroke:#000000;stroke-linecap:square;stroke-linejoin:miter;stroke-width:0.8;"/>
   </g>
   <g id="text_20">
    <!-- tty -->
    <defs>
     <path d="M 32.171875 -5.078125 
Q 28.375 -14.84375 24.75 -17.8125 
Q 21.140625 -20.796875 15.09375 -20.796875 
L 7.90625 -20.796875 
L 7.90625 -13.28125 
L 13.1875 -13.28125 
Q 16.890625 -13.28125 18.9375 -11.515625 
Q 21 -9.765625 23.484375 -3.21875 
L 25.09375 0.875 
L 2.984375 54.6875 
L 12.5 54.6875 
L 29.59375 11.921875 
L 46.6875 54.6875 
L 56.203125 54.6875 
z
" id="DejaVuSans-121"/>
    </defs>
    <g transform="translate(227.904375 180.624)scale(0.12 -0.12)">
     <use xlink:href="#DejaVuSans-116"/>
     <use x="39.208984" xlink:href="#DejaVuSans-116"/>
     <use x="78.417969" xlink:href="#DejaVuSans-121"/>
    </g>
   </g>
   <g id="legend_2">
    <g id="patch_13">
     <path d="M 61.8 304.584 
L 173.580938 304.584 
Q 174.780937 304.584 174.780937 303.384 
L 174.780937 268.7565 
Q 174.780937 267.5565 173.580938 267.5565 
L 61.8 267.5565 
Q 60.6 267.5565 60.6 268.7565 
L 60.6 303.384 
Q 60.6 304.584 61.8 304.584 
z
" style="fill:#ffffff;opacity:0.8;stroke:#cccccc;stroke-linejoin:miter;"/>
    </g>
    <g id="line2d_157">
     <path d="M 63 272.415562 
L 75 272.415562 
" style="fill:none;stroke:#1f77b4;stroke-linecap:square;stroke-width:1.5;"/>
    </g>
    <g id="line2d_158"/>
    <g id="text_21">
     <!--  2019 Data as PDF -->
     <defs>
      <path d="M 10.984375 1.515625 
L 10.984375 10.5 
Q 14.703125 8.734375 18.5 7.8125 
Q 22.3125 6.890625 25.984375 6.890625 
Q 35.75 6.890625 40.890625 13.453125 
Q 46.046875 20.015625 46.78125 33.40625 
Q 43.953125 29.203125 39.59375 26.953125 
Q 35.25 24.703125 29.984375 24.703125 
Q 19.046875 24.703125 12.671875 31.3125 
Q 6.296875 37.9375 6.296875 49.421875 
Q 6.296875 60.640625 12.9375 67.421875 
Q 19.578125 74.21875 30.609375 74.21875 
Q 43.265625 74.21875 49.921875 64.515625 
Q 56.59375 54.828125 56.59375 36.375 
Q 56.59375 19.140625 48.40625 8.859375 
Q 40.234375 -1.421875 26.421875 -1.421875 
Q 22.703125 -1.421875 18.890625 -0.6875 
Q 15.09375 0.046875 10.984375 1.515625 
z
M 30.609375 32.421875 
Q 37.25 32.421875 41.125 36.953125 
Q 45.015625 41.5 45.015625 49.421875 
Q 45.015625 57.28125 41.125 61.84375 
Q 37.25 66.40625 30.609375 66.40625 
Q 23.96875 66.40625 20.09375 61.84375 
Q 16.21875 57.28125 16.21875 49.421875 
Q 16.21875 41.5 20.09375 36.953125 
Q 23.96875 32.421875 30.609375 32.421875 
z
" id="DejaVuSans-57"/>
     </defs>
     <g transform="translate(79.8 274.515562)scale(0.06 -0.06)">
      <use xlink:href="#DejaVuSans-32"/>
      <use x="31.787109" xlink:href="#DejaVuSans-50"/>
      <use x="95.410156" xlink:href="#DejaVuSans-48"/>
      <use x="159.033203" xlink:href="#DejaVuSans-49"/>
      <use x="222.65625" xlink:href="#DejaVuSans-57"/>
      <use x="286.279297" xlink:href="#DejaVuSans-32"/>
      <use x="318.066406" xlink:href="#DejaVuSans-68"/>
      <use x="395.068359" xlink:href="#DejaVuSans-97"/>
      <use x="456.347656" xlink:href="#DejaVuSans-116"/>
      <use x="495.556641" xlink:href="#DejaVuSans-97"/>
      <use x="556.835938" xlink:href="#DejaVuSans-32"/>
      <use x="588.623047" xlink:href="#DejaVuSans-97"/>
      <use x="649.902344" xlink:href="#DejaVuSans-115"/>
      <use x="702.001953" xlink:href="#DejaVuSans-32"/>
      <use x="733.789062" xlink:href="#DejaVuSans-80"/>
      <use x="794.091797" xlink:href="#DejaVuSans-68"/>
      <use x="871.09375" xlink:href="#DejaVuSans-70"/>
     </g>
    </g>
    <g id="line2d_159">
     <path d="M 63 281.222437 
L 75 281.222437 
" style="fill:none;stroke:#ff7f0e;stroke-dasharray:1.5,2.475;stroke-dashoffset:0;stroke-width:1.5;"/>
    </g>
    <g id="line2d_160"/>
    <g id="text_22">
     <!-- Fitted Powerlaw PDF -->
     <g transform="translate(79.8 283.322437)scale(0.06 -0.06)">
      <use xlink:href="#DejaVuSans-70"/>
      <use x="57.410156" xlink:href="#DejaVuSans-105"/>
      <use x="85.193359" xlink:href="#DejaVuSans-116"/>
      <use x="124.402344" xlink:href="#DejaVuSans-116"/>
      <use x="163.611328" xlink:href="#DejaVuSans-101"/>
      <use x="225.134766" xlink:href="#DejaVuSans-100"/>
      <use x="288.611328" xlink:href="#DejaVuSans-32"/>
      <use x="320.398438" xlink:href="#DejaVuSans-80"/>
      <use x="380.654297" xlink:href="#DejaVuSans-111"/>
      <use x="441.835938" xlink:href="#DejaVuSans-119"/>
      <use x="523.623047" xlink:href="#DejaVuSans-101"/>
      <use x="585.146484" xlink:href="#DejaVuSans-114"/>
      <use x="626.259766" xlink:href="#DejaVuSans-108"/>
      <use x="654.042969" xlink:href="#DejaVuSans-97"/>
      <use x="715.322266" xlink:href="#DejaVuSans-119"/>
      <use x="797.109375" xlink:href="#DejaVuSans-32"/>
      <use x="828.896484" xlink:href="#DejaVuSans-80"/>
      <use x="889.199219" xlink:href="#DejaVuSans-68"/>
      <use x="966.201172" xlink:href="#DejaVuSans-70"/>
     </g>
    </g>
    <g id="line2d_161">
     <path d="M 63 290.029312 
L 75 290.029312 
" style="fill:none;stroke:#2ca02c;stroke-dasharray:9.6,2.4,1.5,2.4;stroke-dashoffset:0;stroke-width:1.5;"/>
    </g>
    <g id="line2d_162"/>
    <g id="text_23">
     <!-- Fitted Lognormal PDF -->
     <g transform="translate(79.8 292.129312)scale(0.06 -0.06)">
      <use xlink:href="#DejaVuSans-70"/>
      <use x="57.410156" xlink:href="#DejaVuSans-105"/>
      <use x="85.193359" xlink:href="#DejaVuSans-116"/>
      <use x="124.402344" xlink:href="#DejaVuSans-116"/>
      <use x="163.611328" xlink:href="#DejaVuSans-101"/>
      <use x="225.134766" xlink:href="#DejaVuSans-100"/>
      <use x="288.611328" xlink:href="#DejaVuSans-32"/>
      <use x="320.398438" xlink:href="#DejaVuSans-76"/>
      <use x="376.095703" xlink:href="#DejaVuSans-111"/>
      <use x="437.277344" xlink:href="#DejaVuSans-103"/>
      <use x="500.753906" xlink:href="#DejaVuSans-110"/>
      <use x="564.132812" xlink:href="#DejaVuSans-111"/>
      <use x="625.314453" xlink:href="#DejaVuSans-114"/>
      <use x="666.412109" xlink:href="#DejaVuSans-109"/>
      <use x="763.824219" xlink:href="#DejaVuSans-97"/>
      <use x="825.103516" xlink:href="#DejaVuSans-108"/>
      <use x="852.886719" xlink:href="#DejaVuSans-32"/>
      <use x="884.673828" xlink:href="#DejaVuSans-80"/>
      <use x="944.976562" xlink:href="#DejaVuSans-68"/>
      <use x="1021.978516" xlink:href="#DejaVuSans-70"/>
     </g>
    </g>
    <g id="line2d_163">
     <path d="M 63 298.836187 
L 75 298.836187 
" style="fill:none;stroke:#d62728;stroke-dasharray:5.55,2.4;stroke-dashoffset:0;stroke-width:1.5;"/>
    </g>
    <g id="line2d_164"/>
    <g id="text_24">
     <!-- Fitted truncated Powerlaw PDF -->
     <g transform="translate(79.8 300.936187)scale(0.06 -0.06)">
      <use xlink:href="#DejaVuSans-70"/>
      <use x="57.410156" xlink:href="#DejaVuSans-105"/>
      <use x="85.193359" xlink:href="#DejaVuSans-116"/>
      <use x="124.402344" xlink:href="#DejaVuSans-116"/>
      <use x="163.611328" xlink:href="#DejaVuSans-101"/>
      <use x="225.134766" xlink:href="#DejaVuSans-100"/>
      <use x="288.611328" xlink:href="#DejaVuSans-32"/>
      <use x="320.398438" xlink:href="#DejaVuSans-116"/>
      <use x="359.607422" xlink:href="#DejaVuSans-114"/>
      <use x="400.720703" xlink:href="#DejaVuSans-117"/>
      <use x="464.099609" xlink:href="#DejaVuSans-110"/>
      <use x="527.478516" xlink:href="#DejaVuSans-99"/>
      <use x="582.458984" xlink:href="#DejaVuSans-97"/>
      <use x="643.738281" xlink:href="#DejaVuSans-116"/>
      <use x="682.947266" xlink:href="#DejaVuSans-101"/>
      <use x="744.470703" xlink:href="#DejaVuSans-100"/>
      <use x="807.947266" xlink:href="#DejaVuSans-32"/>
      <use x="839.734375" xlink:href="#DejaVuSans-80"/>
      <use x="899.990234" xlink:href="#DejaVuSans-111"/>
      <use x="961.171875" xlink:href="#DejaVuSans-119"/>
      <use x="1042.958984" xlink:href="#DejaVuSans-101"/>
      <use x="1104.482422" xlink:href="#DejaVuSans-114"/>
      <use x="1145.595703" xlink:href="#DejaVuSans-108"/>
      <use x="1173.378906" xlink:href="#DejaVuSans-97"/>
      <use x="1234.658203" xlink:href="#DejaVuSans-119"/>
      <use x="1316.445312" xlink:href="#DejaVuSans-32"/>
      <use x="1348.232422" xlink:href="#DejaVuSans-80"/>
      <use x="1408.535156" xlink:href="#DejaVuSans-68"/>
      <use x="1485.537109" xlink:href="#DejaVuSans-70"/>
     </g>
    </g>
   </g>
  </g>
 </g>
 <defs>
  <clipPath id="p2b3db0bc57">
   <rect height="120.96" width="357.12" x="57.6" y="41.472"/>
  </clipPath>
  <clipPath id="p74f066602e">
   <rect height="120.96" width="357.12" x="57.6" y="186.624"/>
  </clipPath>
 </defs>
</svg>
